<?xml version="1.0" encoding="UTF-8"?>
<svg width="53px" height="52px" viewBox="0 0 53 52" version="1.1" xmlns="http://www.w3.org/2000/svg" xmlns:xlink="http://www.w3.org/1999/xlink">
    <title>已激活</title>
    <g id="PC端" stroke="none" stroke-width="1" fill="none" fill-rule="evenodd">
        <g id="已激活" transform="translate(0.326923, 0.991379)">
            <ellipse id="椭圆形" fill="#73D13D" cx="25.5164835" cy="25.4482759" rx="25.5164835" ry="25.4482759"></ellipse>
            <path d="M31.3930769,22.6286207 C32.1730769,22.6286207 32.9530769,22.7586207 33.7330769,22.8886207 L33.7330769,14.9586207 C33.6030769,13.9186207 32.8230769,13.0086207 31.7830769,13.0086207 L14.6230769,13.0086207 C13.5830769,13.0086207 12.6730769,13.9186207 12.6730769,14.9586207 L12.6730769,34.9786207 C12.6730769,36.0186207 13.5830769,36.9286207 14.6230769,36.9286207 L23.9830769,36.9286207 C22.9430769,35.3686207 22.2930769,33.5486207 22.2930769,31.7286207 C22.2930769,26.6586207 26.3230769,22.6286207 31.3930769,22.6286207 Z M17.5220769,16.9086207 L28.8710769,16.9086207 C29.4040769,16.9086207 29.8200769,17.3376207 29.8200769,17.8576207 C29.8200769,18.3906207 29.3910769,18.8066207 28.8710769,18.8066207 L17.5220769,18.8066207 C16.9890769,18.8066207 16.5730769,18.3776207 16.5730769,17.8576207 C16.5730769,17.3376207 17.0020769,16.9086207 17.5220769,16.9086207 Z M19.3940769,30.2076207 L17.5220769,30.2076207 C16.9890769,30.2076207 16.5730769,29.7786207 16.5730769,29.2586207 C16.5730769,28.7386207 17.0020769,28.3096207 17.5220769,28.3096207 L19.3810769,28.3096207 C19.9140769,28.3096207 20.3300769,28.7386207 20.3300769,29.2586207 C20.3300769,29.7786207 19.9140769,30.2076207 19.3940769,30.2076207 Z M21.2140769,24.5396207 L17.5220769,24.5396207 C16.9890769,24.5396207 16.5730769,24.1106207 16.5730769,23.5906207 C16.5730769,23.0576207 17.0020769,22.6416207 17.5220769,22.6416207 L21.2010769,22.6416207 C21.7340769,22.6416207 22.1500769,23.0706207 22.1500769,23.5906207 C22.1630769,24.1106207 21.7340769,24.5396207 21.2140769,24.5396207 Z M31.5230769,24.7086207 C27.6230769,24.7086207 24.3730769,27.9586207 24.3730769,31.8586207 C24.3730769,35.7586207 27.6230769,39.0086207 31.5230769,39.0086207 C35.4230769,39.0086207 38.6730769,35.7586207 38.6730769,31.8586207 C38.6730769,27.9586207 35.4230769,24.7086207 31.5230769,24.7086207 L31.5230769,24.7086207 Z M35.7740769,30.3116207 L31.3280769,34.7576207 C30.9510769,35.1346207 30.3530769,35.1346207 29.9760769,34.7576207 L29.9630769,34.7446207 L29.9500769,34.7316207 L27.2590769,32.0406207 C26.8820769,31.6636207 26.8820769,31.0656207 27.2590769,30.6886207 C27.6360769,30.3116207 28.2340769,30.3116207 28.6110769,30.6886207 L30.6520769,32.7296207 L34.4220769,28.9596207 C34.7990769,28.5826207 35.3970769,28.5826207 35.7740769,28.9596207 C36.1510769,29.3366207 36.1510769,29.9346207 35.7740769,30.3116207 L35.7740769,30.3116207 Z" id="形状" fill="#FFFFFF" fill-rule="nonzero"></path>
        </g>
    </g>
</svg>