<?xml version="1.0" encoding="UTF-8"?>
<svg width="53px" height="52px" viewBox="0 0 53 52" version="1.1" xmlns="http://www.w3.org/2000/svg" xmlns:xlink="http://www.w3.org/1999/xlink">
    <title>已终审</title>
    <g id="PC端" stroke="none" stroke-width="1" fill="none" fill-rule="evenodd">
        <g id="已终审" transform="translate(0.326923, 0.991379)">
            <ellipse id="椭圆形" fill="#9254DE" cx="25.5164835" cy="25.4482759" rx="25.5164835" ry="25.4482759"></ellipse>
            <path d="M25.7731937,34.090262 L12.9746788,34.090262 L12.9746788,36.6033418 L28.4043967,36.6033418 L25.7731937,34.090262 Z M32.3369013,36.6033418 L32.6372017,36.6033418 L32.6372017,36.3241107 L32.3369013,36.6033418 Z M36.2837059,26.7185611 L30.377799,32.3590292 L27.9896963,30.0832958 L25.9590939,32.051875 L30.377799,36.2682645 L38.3143083,28.6871403 L36.2837059,26.7185611 Z M30.377799,30.139142 L31.8650008,28.7150634 C31.6648005,28.603371 31.4360003,28.5475248 31.1929,28.5475248 L28.7046971,28.5475248 L30.377799,30.139142 L30.377799,30.139142 Z M23.6567912,32.0658365 L27.2603954,28.5475248 L26.4166944,28.5475248 C25.9876939,28.0309472 25.7016936,27.4864466 25.6301935,26.8581766 C25.4299933,24.2613275 28.2899966,23.0466722 28.2899966,19.8913608 C28.2899966,17.2386654 26.1878942,15.0606629 22.8273903,15.0606629 C19.4668863,15.0606629 17.3361839,17.2386654 17.3361839,19.9192839 C17.3361839,23.0885569 20.1818872,24.3032121 19.995987,26.8860997 C19.9244869,27.5283313 19.6384865,28.0728319 19.209486,28.5754479 L14.4332805,28.5754479 C13.6467796,28.5754479 12.9889788,29.2176794 12.9889788,29.9855649 L12.9889788,32.833722 L24.4575921,32.833722 L23.6567912,32.0658365 Z" id="形状" fill="#FFFFFF" fill-rule="nonzero"></path>
        </g>
    </g>
</svg>