<?xml version="1.0" encoding="UTF-8"?>
<svg width="24px" height="24px" viewBox="0 0 24 24" version="1.1" xmlns="http://www.w3.org/2000/svg" xmlns:xlink="http://www.w3.org/1999/xlink">
    <title>订单汇总</title>
    <g id="PC端" stroke="none" stroke-width="1" fill="none" fill-rule="evenodd">
        <g id="订单汇总">
            <g id="life-number" transform="translate(2.000000, 1.000000)" fill="#40A9FF" fill-rule="nonzero">
                <path d="M19.1183492,18.6281819 L19.1183492,18.6278336 C19.1183492,19.7182433 18.2321594,20.6021941 17.1390169,20.6021941 C16.9829512,20.6021941 16.8274334,20.5837821 16.675703,20.5473418 L9.94902728,18.9308327 L9.94902728,18.9308327 C9.79649883,18.8941309 9.63740896,18.8941309 9.48487842,18.9308326 L2.75785473,20.5472584 L2.75785475,20.5472584 C1.69512789,20.8026868 0.626031671,20.1503956 0.369972416,19.0903255 C0.333414027,18.9389813 0.314900911,18.7838545 0.314900911,18.6281792 L0.314900911,3.36538715 L0.314900911,3.36538759 C0.314900911,1.72977427 1.64415031,0.403845686 3.28386523,0.403845686 L16.149385,0.403845686 L16.1493849,0.403845686 C17.7890975,0.403845686 19.1183492,1.72977196 19.1183492,3.36538759 L19.1183492,18.6281797 L19.1183492,18.6281819 Z M17.6339625,6.32691864 L1.79935935,6.32691864 L1.79935935,18.6281819 L1.79935935,18.6282934 C1.79935935,18.9008964 2.02090115,19.121883 2.29418596,19.121883 C2.31407019,19.121883 2.33393645,19.1206874 2.35367635,19.1183028 L2.41008668,19.1079374 L9.13727273,17.4909356 L9.13727263,17.4909356 C9.47003786,17.4111155 9.81578535,17.4010313 10.1526584,17.4613202 L10.2961584,17.4909356 L17.0233445,19.1079375 L17.0233445,19.1079375 C17.2890575,19.1716678 17.5562527,19.0084674 17.6201434,18.7434202 C17.6247496,18.7243115 17.6282075,18.7049454 17.6304987,18.6854254 L17.6339625,18.6281688 L17.6339625,6.32691864 L17.6339625,6.32691864 Z M16.1493613,1.88461761 L3.28384152,1.88461761 L3.28384157,1.88461761 C2.49778043,1.88457512 1.84794836,2.49577234 1.80183432,3.27851712 L1.7993602,3.36538909 L1.7993602,4.84616004 L17.6338443,4.84616004 L17.6338443,3.36538909 L17.6338443,3.36530661 C17.6338443,2.58121063 17.0210802,1.93303785 16.236369,1.88708073 L16.1493619,1.88461761 L16.1493613,1.88461761 Z" id="形状"></path>
            </g>
            <rect id="矩形" x="0" y="0" width="24" height="24"></rect>
        </g>
    </g>
</svg>