<?xml version="1.0" encoding="UTF-8"?>
<svg width="53px" height="52px" viewBox="0 0 53 52" version="1.1" xmlns="http://www.w3.org/2000/svg" xmlns:xlink="http://www.w3.org/1999/xlink">
    <title>已发货</title>
    <g id="PC端" stroke="none" stroke-width="1" fill="none" fill-rule="evenodd">
        <g id="已发货" transform="translate(0.326923, 0.991379)">
            <ellipse id="椭圆形" fill="#40A9FF" cx="25.5164835" cy="25.4482759" rx="25.5164835" ry="25.4482759"></ellipse>
            <path d="M34.1905649,31.2840995 C35.0408953,31.2948518 35.7269077,31.9791117 35.7376961,32.826598 L35.7376962,32.826601 C35.7441833,33.2436569 35.5784531,33.645056 35.2793136,33.9368069 C34.6858629,34.5395836 33.7143708,34.5481331 33.1097406,33.9559796 L33.1097404,33.9559794 C32.8034402,33.6603422 32.6337266,33.2514689 32.6409604,32.8265998 L32.6409603,32.8265951 C32.6365456,32.4191843 32.7986454,32.0275137 33.0899839,31.7416531 L33.0899839,31.7416532 C33.3762305,31.4409783 33.7764405,31.2745223 34.1922557,31.2831908 L34.1905657,31.2840976 L34.1905649,31.2840995 Z M17.5309185,31.261429 L17.5309184,31.261429 C17.1161088,31.253276 16.7169118,31.4189952 16.4305967,31.7182063 L16.4305965,31.7182064 C16.1365042,32.0125938 15.9745296,32.4130795 15.9815755,32.8284123 L15.9815755,32.8284131 C15.9755784,33.236125 16.1379235,33.6283901 16.4305965,33.9133575 C17.0331472,34.5189832 18.0143894,34.5231277 18.6218786,33.9225552 C18.6249986,33.9195757 18.6281186,33.9167257 18.6308486,33.9133575 L18.6308486,33.9133575 C18.9214421,33.6269554 19.083564,33.2356872 19.0803901,32.828413 L19.0803902,32.8284081 C19.0872679,32.413007 18.9251038,32.0125213 18.6308461,31.7182048 L18.6308462,31.7182049 C18.3454121,31.4187673 17.9467103,31.2528402 17.532345,31.261038 L17.530915,31.2614266 L17.5309185,31.261429 Z M38.5109878,27.0708817 L38.5113778,27.0721772 L38.5113779,27.0721777 C38.3820562,26.1260975 38.1673803,25.1935665 37.8699592,24.2859098 L37.8699593,24.2859101 C37.5571033,23.3249372 37.0912152,22.4203471 36.4901397,21.6067703 L36.4901396,21.6067701 C36.1455351,21.1338325 35.7196779,20.7253843 35.2322586,20.4003109 L35.2322585,20.4003108 C34.7341675,20.0638515 34.1975437,19.7878663 33.6337772,19.5782149 L33.6337765,19.5782147 C33.0766166,19.3719958 32.5001371,19.2218807 31.9129655,19.1301159 L31.9129656,19.1301159 C31.3600816,19.0421416 30.7984962,19.0216951 30.2406432,19.0692295 L30.2406431,19.0692295 C30.035377,19.1071145 29.8649808,19.2492938 29.7914926,19.444006 L29.7914926,19.444006 C29.6825075,19.6314117 29.6196461,19.8418881 29.6080623,20.0581812 L29.6080623,31.6931983 L29.6080623,31.6931952 C29.6125157,32.2780152 30.0870596,32.7510768 30.6739316,32.7557323 L31.110341,32.7557323 L31.1103409,32.7557159 C31.1078064,32.362459 31.1858408,31.9728253 31.3396673,31.6106643 L31.3396672,31.6106645 C31.4882008,31.2566103 31.7015678,30.9331966 31.968868,30.6569508 L31.9688682,30.6569506 C32.2355741,30.3834145 32.5512104,30.1619345 32.8995397,30.0039117 L32.8995398,30.0039116 C33.2651094,29.8416839 33.6614524,29.7598118 34.0616117,29.7638636 L34.0616117,29.7638636 C34.46691,29.7620176 34.8703066,29.8191449 35.2590426,29.9334386 L35.2590426,29.9334386 C35.6235559,30.0387197 35.9616198,30.2195876 36.2510733,30.4641859 L36.2510732,30.4641859 C36.5460618,30.7222068 36.7776525,31.0442819 36.927983,31.4055928 L36.9279831,31.405593 C37.1087435,31.8502811 37.195273,32.3274112 37.1821334,32.8070159 L38.1737756,32.8070159 L38.1737756,32.8070159 C38.2717665,32.8062602 38.3610783,32.7508794 38.4050458,32.6636089 C38.4677059,32.5537542 38.516716,32.4365155 38.549216,32.3147416 C38.589646,32.1801437 38.6173361,32.0425668 38.6329361,31.9034343 C38.6478861,31.78775 38.6564661,31.6714181 38.6584161,31.5545669 C38.6584161,31.0559454 38.6629661,30.411456 38.6715461,29.6217465 L38.6715463,29.6217326 C38.6831808,28.7686064 38.6295078,27.9158396 38.5109941,27.070848 L38.5109878,27.0708817 Z M36.6630357,26.7768132 L36.6630357,26.7768132 C36.6471928,26.7818419 36.6307626,26.784803 36.6141556,26.7856223 L36.6111656,26.7808291 C36.4666055,26.7870473 36.2963063,26.7937837 36.1040355,26.7937837 L31.6465792,26.7937837 L31.6465792,26.7937837 C31.5151922,26.7842094 31.3929177,26.7233093 31.3063698,26.624338 L31.3063698,26.624338 C31.2149965,26.5520845 31.1542485,26.448217 31.1361996,26.3333791 L31.1361996,26.3070813 L31.1361953,26.3068754 C31.1212603,25.5914446 31.1127682,24.8758949 31.1107201,24.1603123 L31.1107201,21.9644535 L31.1107201,21.9644546 C31.115678,21.777077 31.1939651,21.5990576 31.3288596,21.468424 L31.3288596,21.4684239 C31.4653296,21.3194199 31.6595856,21.236202 31.8619897,21.240035 C31.8782397,21.240035 31.9993999,21.2301895 32.2245607,21.214385 L32.2245608,21.214385 C32.5033375,21.2008188 32.7827718,21.212526 33.0594208,21.2493623 L33.0594208,21.2493623 C33.4199046,21.2973319 33.773632,21.3865739 34.1135925,21.5153204 L34.1135922,21.5153203 C34.5019753,21.663019 34.8558753,21.888442 35.1534639,22.1776855 L35.1534639,22.1776854 C35.6607514,22.7030586 36.0272833,23.3471407 36.2193356,24.0506568 L36.2193373,24.0506626 C36.4351647,24.8060956 36.6289444,25.5676138 36.8004278,26.3342531 C36.7980878,26.359644 36.8027678,26.3851645 36.8130378,26.407835 C36.8233078,26.4311532 36.8277278,26.4564146 36.8260378,26.4814169 L36.8260378,26.4814169 C36.8627895,26.6078299 36.7898328,26.7400147 36.6630176,26.7767809 L36.6630357,26.7768132 Z M28.0609358,16.1301127 L23.718423,16.1301127 C23.718423,16.1251899 17.0925793,16.1251899 15.6194136,16.1251899 C14.1877209,16.1251899 13.3528609,17.8179614 13.2214313,18.1541322 L13.2214311,18.1541327 C13.0785873,18.5155042 13.00478,18.9002977 13.0038111,19.2886941 L13.0038111,31.843485 L13.0038111,31.8434852 C12.9867148,32.10434 13.0838726,32.3597801 13.2701819,32.5438083 L13.2701819,32.5438083 C13.4566928,32.7073338 13.6991113,32.7932215 13.9473532,32.7837267 L14.5055744,32.7837267 L14.5055742,32.7837253 C14.4389466,31.9406187 14.7235962,31.1073697 15.2925957,30.4798857 L15.2925955,30.4798859 C15.915936,29.9374845 16.729643,29.6634703 17.5553776,29.7178996 C18.5891378,29.7178996 19.3463887,29.9921467 19.8311597,30.5399956 L19.8311597,30.5399956 C20.3446629,31.1729776 20.603221,31.9738326 20.5564311,32.7866023 L27.1649837,32.7866023 L27.1649836,32.7866023 C27.413335,32.7910163 27.6530327,32.6955471 27.8298049,32.5216537 L27.8298049,32.5216537 C28.0150513,32.3463266 28.116605,32.1006811 28.1090462,31.8462024 L28.0609462,16.1301192 L28.0609358,16.1301127 Z M20.7855993,26.1537039 L20.7855993,24.0829174 L17.5769315,24.0829174 L17.5769315,21.9371235 L20.7855993,21.9371235 L20.7855993,20.018424 L24.7398128,23.0857957 L20.7855993,26.1537039 L20.7855993,26.1537039 Z" id="形状" fill="#FFFFFF" fill-rule="nonzero"></path>
        </g>
    </g>
</svg>