<?xml version="1.0" encoding="UTF-8"?>
<svg width="53px" height="52px" viewBox="0 0 53 52" version="1.1" xmlns="http://www.w3.org/2000/svg" xmlns:xlink="http://www.w3.org/1999/xlink">
    <title>跟进中</title>
    <g id="PC端" stroke="none" stroke-width="1" fill="none" fill-rule="evenodd">
        <g id="跟进中" transform="translate(0.326923, 0.991379)">
            <ellipse id="椭圆形" fill="#36CFC9" cx="25.5164835" cy="25.4482759" rx="25.5164835" ry="25.4482759"></ellipse>
            <path d="M31.4610611,14.0086152 L19.8850697,14.0086152 L19.8850696,14.0086152 C17.9860837,14.002993 16.1587994,14.7254552 14.7870658,16.0242517 L14.7870657,16.0242518 C13.4425109,17.2967756 12.6793314,19.0555837 12.6730664,20.8961122 L12.6730664,29.2176423 C12.6730664,33.0194 15.9010678,36.1031429 19.8850625,36.1031429 L28.6270691,36.1031429 L29.5770683,37.0130316 C30.0090686,37.4284161 30.5810688,37.6855593 31.1910667,37.7389648 L31.4350659,37.7448988 C32.1070667,37.7567669 32.6210648,37.5589649 33.3450653,37.0130314 L35.7670566,34.6948 C37.8710549,32.4972182 38.6250654,31.3183111 38.6730664,29.2176514 L38.6730664,20.8961214 C38.6730664,17.0923933 35.4430728,14.0086152 31.4610703,14.0086152 L31.4610611,14.0086152 Z M30.8530624,25.5741445 L30.8530624,25.5741444 C30.8068005,25.8011632 30.6916877,26.0088499 30.5230621,26.1695299 L25.9750549,30.5172106 L25.9750548,30.5172106 C25.4953583,30.9214616 24.7841175,30.9009469 24.3290542,30.469738 L24.3290542,30.4697379 C23.8787254,30.0472277 23.8564194,29.3448597 24.2790543,28.895233 L26.857049,26.4325873 L21.0390527,26.4325873 L21.0390527,26.4325873 C20.4897944,26.438893 20.0132573,26.058865 19.9030541,25.5266532 L19.903054,25.5266531 C19.8132803,25.1427685 19.9349159,24.740518 20.2230533,24.4684118 L24.7710606,20.1207311 L24.7710606,20.1207311 C25.2460227,19.6736357 25.9920995,19.6736357 26.4670592,20.1207312 L26.4710592,20.1207312 L26.4710592,20.1207312 C26.9239333,20.5454111 26.9429627,21.2527744 26.5135631,21.7006719 C26.4997745,21.7150545 26.4856016,21.7290717 26.4710592,21.7427088 L23.8750641,24.2211635 L29.5750735,24.2211635 L29.5750734,24.2211635 C29.6947508,24.2108988 29.8152967,24.2175592 29.9330728,24.2409437 L29.9330729,24.2409437 C30.2402141,24.2940457 30.5131357,24.466398 30.6910725,24.7196248 L30.6910725,24.7196248 C30.8641932,24.9692459 30.9230006,25.2794376 30.8530726,25.5741308 L30.8530624,25.5741445 Z" id="形状" fill="#FFFFFF" fill-rule="nonzero"></path>
        </g>
    </g>
</svg>