<?xml version="1.0" encoding="UTF-8"?>
<svg width="53px" height="52px" viewBox="0 0 53 52" version="1.1" xmlns="http://www.w3.org/2000/svg" xmlns:xlink="http://www.w3.org/1999/xlink">
    <title>在途中</title>
    <g id="PC端" stroke="none" stroke-width="1" fill="none" fill-rule="evenodd">
        <g id="在途中" transform="translate(0.326923, 0.991379)">
            <ellipse id="椭圆形" fill="#F759AB" cx="25.5164835" cy="25.4482759" rx="25.5164835" ry="25.4482759"></ellipse>
            <path d="M38.5951137,24.7113018 L38.5951137,24.711302 C38.5508904,24.587387 38.4919852,24.4690174 38.4196137,24.3586361 L35.7702117,18.9063645 L34.8017095,17.1890289 L30.8964923,17.1890289 L30.8964923,15.2813035 C30.8964923,14.8021375 30.7768922,14.4673568 30.5220916,14.2616349 C30.3101913,14.0904125 30.003392,14.0086346 29.5951908,14.0086346 L13.8066597,14.0086346 C13.2996599,14.0086346 12.6730594,14.6666906 12.6730594,15.0973018 L12.6730594,29.7457608 C12.6730594,30.3271508 12.9980608,30.8318721 13.4738603,31.1104278 L13.4738603,31.1104279 C14.3098415,29.4097476 16.0645485,28.3314876 17.9861579,28.3376369 C20.0700613,28.3376369 21.6872647,29.4250275 22.4360605,31.1819685 L27.6425793,31.1819685 C28.3913807,29.4378011 29.9019819,28.363195 31.9663792,28.363195 C34.0307822,28.363195 35.3541705,29.4378066 36.1029942,31.1819685 L37.4042957,31.1819685 C38.303898,31.1819685 38.6730982,30.6299689 38.6730982,29.7585234 L38.6730982,25.1968589 C38.6730982,25.12147 38.6665982,25.0460811 38.6535982,24.9706919 L38.595098,24.7113026 L38.5951137,24.7113018 Z M30.2452027,23.5485216 L30.2452027,19.0980115 L33.4991128,19.0980115 L34.8017131,23.5510747 L30.2452027,23.5510747 L30.2452027,23.5485216 Z M32.039218,29.752135 C30.1893153,29.752135 28.6917014,31.2113587 28.6917014,33.0053685 C28.6917014,34.7993701 30.1893042,36.258602 32.039218,36.258602 C33.8878191,36.258602 35.3854219,34.7993783 35.3854219,33.0053685 C35.3854219,31.2113669 33.8878191,29.752135 32.039218,29.752135 Z M18.0901941,29.752135 C16.241593,29.752135 14.7439902,31.2113587 14.7439902,33.0053685 C14.7439902,34.7993701 16.241593,36.258602 18.0901941,36.258602 C19.9400968,36.258602 21.4441904,34.7993783 21.4441904,33.0053685 C21.4441904,31.2113669 19.9400884,29.752135 18.0901941,29.752135 Z" id="形状" fill="#FFFFFF" fill-rule="nonzero"></path>
        </g>
    </g>
</svg>