<?xml version="1.0" encoding="UTF-8"?>
<svg width="24px" height="24px" viewBox="0 0 24 24" version="1.1" xmlns="http://www.w3.org/2000/svg" xmlns:xlink="http://www.w3.org/1999/xlink">
    <title>订单简报</title>
    <g id="PC端" stroke="none" stroke-width="1" fill="none" fill-rule="evenodd">
        <g id="订单简报">
            <rect id="矩形" x="0" y="0" width="24" height="24"></rect>
            <path d="M20.2456141,7.1875 L20.2456141,7.1875 C21.2145351,7.1875 22,8.04047406 22,9.09267187 C22,9.09267187 22,9.09267189 22,9.09267189 L22,19.0948281 L22,19.0948281 C22,20.1470259 21.2145351,21 20.2456141,21 C20.2456141,21 20.2456141,21 20.2456141,21 L18.4912281,21 L18.491228,21 C17.522307,21 16.7368421,20.1470259 16.7368421,19.0948281 C16.7368421,19.0948281 16.7368421,19.0948281 16.7368421,19.0948281 L16.7368421,9.09267189 L16.7368421,9.09267216 C16.7368421,8.04047435 17.522307,7.1875 18.491228,7.1875 C18.491228,7.1875 18.4912281,7.1875 18.4912281,7.1875 L20.245614,7.1875 L20.2456141,7.1875 Z M12.8771931,4 L12.877193,4 C13.846114,4 14.6315789,4.84568403 14.6315789,5.88888913 L14.6315789,19.1111109 L14.6315789,19.1111109 C14.6315789,20.154316 13.846114,21 12.877193,21 C12.877193,21 12.877193,21 12.877193,21 L11.1228071,21 L11.122807,21 C10.153886,21 9.36842105,20.154316 9.36842105,19.1111109 C9.36842105,19.1111109 9.36842105,19.1111109 9.36842105,19.1111109 L9.36842105,5.88888913 L9.36842105,5.88888942 C9.36842105,4.84568432 10.153886,4 11.122807,4 L12.8771929,4 L12.8771931,4 Z M5.50877203,11.4375 L5.50877196,11.4375 C6.47769296,11.4375 7.26315789,12.2386736 7.26315789,13.226972 L7.26315789,18.1480282 L7.26315789,18.1480282 C7.26315789,19.1363266 6.47769296,19.9375 5.50877196,19.9375 C5.50877196,19.9375 5.50877196,19.9375 5.50877196,19.9375 L3.75438602,19.9375 L3.75438594,19.9375 C2.78546493,19.9375 2,19.1363266 2,18.1480282 C2,18.1480282 2,18.1480282 2,18.1480282 L2,13.226972 L2,13.2269718 C2,12.2386734 2.78546493,11.4375 3.75438594,11.4375 L5.50877188,11.4375 L5.50877203,11.4375 Z M20.4210534,8.25 L18.3157898,8.25 L18.3157898,8.25 C18.0489599,8.25 17.8243767,8.42531575 17.7931579,8.6579069 L17.7894737,8.71195581 L17.7894737,18.4130431 L17.7894737,18.4129822 C17.7894737,18.6471833 17.9891497,18.8443276 18.2541409,18.8717592 L18.3157887,18.875 L20.4210523,18.875 L20.4210523,18.875 C20.6878823,18.875 20.9124654,18.6996842 20.9436842,18.4670931 L20.9473684,18.4130442 L20.9473684,8.71195693 L20.9473684,8.71201786 C20.9473684,8.47781672 20.7476926,8.28067244 20.4827012,8.25324088 L20.4210534,8.25 L20.4210534,8.25 Z M13.0526323,5.0625 L10.9473687,5.0625 L10.9473687,5.0625 C10.6805388,5.0625 10.4559556,5.23723146 10.4247368,5.46904742 L10.4210526,5.5229162 L10.4210526,18.4145827 L10.4210526,18.414522 C10.4210526,18.6479426 10.6207287,18.8444299 10.8857198,18.87177 L10.9473677,18.875 L13.0526313,18.875 L13.0526313,18.875 C13.3194612,18.875 13.5440444,18.7002685 13.5752632,18.4684526 L13.5789474,18.4145838 L13.5789474,5.52291731 L13.5789474,5.52297804 C13.5789474,5.28955745 13.3792716,5.09307021 13.1142802,5.06573008 L13.0526323,5.0625 L13.0526323,5.0625 Z M5.68421126,12.5 L3.57894767,12.5 L3.57894768,12.5 C3.31211775,12.5 3.08753456,12.6861042 3.05631579,12.9330084 L3.05263158,12.9903833 L3.05263158,18.3846155 L3.05263158,18.3845509 C3.05263158,18.6331641 3.2523076,18.8424401 3.5172988,18.8715598 L3.57894661,18.875 L5.6842102,18.875 L5.68421022,18.875 C5.95104014,18.875 6.17562334,18.6888958 6.20684211,18.4419916 L6.21052632,18.3846167 L6.21052632,12.9903845 L6.21052632,12.9904491 C6.21052632,12.7418359 6.01085054,12.5325599 5.7458591,12.5034403 L5.68421128,12.5 L5.68421126,12.5 Z" id="形状" fill="#FF4D4F" fill-rule="nonzero"></path>
        </g>
    </g>
</svg>