<?xml version="1.0" encoding="UTF-8"?>
<svg width="53px" height="52px" viewBox="0 0 53 52" version="1.1" xmlns="http://www.w3.org/2000/svg" xmlns:xlink="http://www.w3.org/1999/xlink">
    <title>待审核</title>
    <g id="PC端" stroke="none" stroke-width="1" fill="none" fill-rule="evenodd">
        <g id="待审核" transform="translate(0.326923, 0.991379)">
            <ellipse id="椭圆形" fill="#FF7A45" cx="25.5164835" cy="25.4482759" rx="25.5164835" ry="25.4482759"></ellipse>
            <path d="M27.2282816,31.4470514 L27.5080101,31.4470514 L28.6131245,30.1228686 L28.6131246,30.1228688 C27.0687346,28.5786631 27.0903551,26.0962538 28.6614154,24.5782867 C29.0909334,24.1632774 29.6104908,23.8492579 30.1811097,23.6597851 L30.18111,23.659785 C30.6961222,23.4890488 31.2414897,23.4248241 31.7829617,23.4711444 L31.7829617,15.9230654 C31.7829617,14.9502718 30.9801528,14.1587198 29.9891887,14.1587198 L13.9229847,14.1587198 C12.9320177,14.1574883 12.1292117,14.9490379 12.1292117,15.9218315 L12.1292117,34.9609763 C12.1292117,35.9337698 12.9320206,36.7253205 13.9229847,36.7253205 L24.7107068,36.7253205 C24.7345402,36.7253205 24.7583734,36.7203887 24.7834614,36.7117581 L24.7834613,36.711758 C24.4955362,36.261107 24.3429185,35.7397071 24.3431713,35.2075661 L24.3431713,34.2890212 L24.3431713,34.2890682 C24.3445194,32.722473 25.6343828,31.4518625 27.2282143,31.447083 L27.2282816,31.4470514 Z M16.4781912,18.7477093 L21.0529323,18.7477093 L21.0529324,18.7477093 C21.5479234,18.7659143 21.9341768,19.1750836 21.915655,19.6616104 C21.8981055,20.1226008 21.521937,20.4923369 21.0529294,20.5095856 L16.4781883,20.5095856 L16.4781883,20.5095856 C15.9828503,20.5094975 15.5813738,20.1147408 15.581465,19.6278701 C15.5815546,19.1411237 15.9829797,18.7465621 16.4781883,18.7464754 L16.4781912,18.7477093 Z M16.4781912,23.9532123 L25.1798866,23.9532123 L25.1798866,23.9532123 C25.6752246,23.9532123 26.0767746,24.3478982 26.0767746,24.8347689 C26.0767746,25.3216396 25.6752246,25.7163255 25.1798866,25.7163255 L16.4781912,25.7163255 L16.4781912,25.7163255 C15.9828532,25.7163255 15.5813032,25.3216396 15.5813032,24.8347689 C15.5813032,24.3478982 15.9828532,23.9532123 16.4781912,23.9532123 L16.4781912,23.9532123 Z M23.8389366,30.9218219 L16.4781912,30.9218219 L16.4781912,30.9218219 C15.9828532,30.9217288 15.5814679,30.5269721 15.5814679,30.0401014 C15.5814679,29.553355 15.9829826,29.1587934 16.4781912,29.1587067 L23.8314103,29.1587067 C24.3256399,29.1587067 24.7271165,29.5532481 24.7271165,30.0402632 L24.7271165,30.0402639 C24.7332796,30.5209651 24.3418715,30.9156221 23.8528104,30.9217512 C23.8481859,30.9218219 23.8435612,30.9218219 23.8389364,30.9218219 L23.8389366,30.9218219 Z M35.6577651,32.7712343 L34.7420613,32.7712343 L32.2734269,29.8269618 L32.2734268,29.8269618 C33.6513234,29.3704361 34.3939717,27.9044607 33.9342368,26.5485517 L33.9342367,26.5485515 C33.4709326,25.1958501 31.9812849,24.4667896 30.6038381,24.9185993 L30.6038381,24.9185993 C29.2260973,25.3746223 28.4829669,26.8398839 28.9417757,28.1957669 L28.9417756,28.1957666 C29.2054196,28.9663495 29.8202506,29.5715858 30.603838,29.8318855 L28.1389667,32.7810993 L27.2232629,32.7810993 C26.3715329,32.7810993 25.6866373,33.45922 25.6866373,34.2939227 L25.6866373,35.2087688 C25.6866373,36.0471704 26.3765514,36.7203583 27.2232629,36.7203583 L35.6552454,36.7203583 C36.5019569,36.7203583 37.1931281,36.0422376 37.1931281,35.2087688 L37.1931281,34.2889929 L37.1931281,34.2889829 C37.1951987,33.4534769 36.5077898,32.7745095 35.6577532,32.7724694 C35.6577501,32.7724694 35.6577471,32.7724694 35.657744,32.7724693 L35.6577651,32.7712343 Z" id="形状" fill="#FFFFFF" fill-rule="nonzero"></path>
        </g>
    </g>
</svg>