<?xml version="1.0" encoding="UTF-8"?>
<svg width="53px" height="52px" viewBox="0 0 53 52" version="1.1" xmlns="http://www.w3.org/2000/svg" xmlns:xlink="http://www.w3.org/1999/xlink">
    <title>已签收</title>
    <g id="PC端" stroke="none" stroke-width="1" fill="none" fill-rule="evenodd">
        <g id="已签收" transform="translate(0.326923, 0.991379)">
            <ellipse id="椭圆形" fill="#597EF7" cx="25.5164835" cy="25.4482759" rx="25.5164835" ry="25.4482759"></ellipse>
            <path d="M34.5114299,31.3958933 L30.8349647,35.0934835 L30.8349647,35.0934835 C30.6659427,35.2610865 30.393406,35.2610865 30.224383,35.0934835 L28.3893927,33.2357585 L28.3893927,33.2357585 C28.2100311,33.0771091 28.1932405,32.8030967 28.35189,32.6237345 C28.5105394,32.4443729 28.7845518,32.4275823 28.9639139,32.5862318 C28.9760189,32.5969389 28.9875157,32.6083143 28.9983505,32.620305 L30.5312986,34.1532531 L33.895992,30.7853097 L33.895992,30.7853097 C34.0608459,30.6116336 34.3352782,30.6044818 34.5089554,30.7693359 C34.6826315,30.9341898 34.6897833,31.2086221 34.5249292,31.3822993 C34.5205351,31.3869286 34.5160392,31.3914603 34.511445,31.3958911 M31.5933224,26.8652589 L31.5933222,26.8652589 C28.244955,26.8652589 25.5305417,29.5796468 25.5305417,32.9280394 C25.5305417,36.2764066 28.2449296,38.9908199 31.5933222,38.9908199 L31.5933219,38.9908199 C34.9416891,38.9908199 37.6561024,36.276432 37.6561024,32.9280394 C37.6561024,29.5796722 34.9417145,26.8652589 31.5933219,26.8652589" id="形状" fill="#FFFFFF" fill-rule="nonzero"></path>
            <path d="M24.810321,33.7943707 L13.2726044,33.7943707 L13.2726044,33.7943707 C12.3892102,33.7943707 11.6730769,33.0782374 11.6730769,32.1948432 C11.6730769,32.1948432 11.6730769,32.1948432 11.6730769,32.1948432 L11.6730769,20.6035524 C11.6730769,20.382704 11.8517042,20.2040761 12.0725532,20.2040761 L32.0593401,20.2040761 C32.2801885,20.2040761 32.4588163,20.3827035 32.4588163,20.6035524 L32.4588163,26.0143263 C32.2964279,26.004583 32.1340394,25.9997113 31.9716509,25.9997113 C27.9362888,25.9997113 24.6641698,28.9064588 24.6641698,32.4952501 C24.6641698,32.9401959 24.7145103,33.3753968 24.8103194,33.7943707 L24.810321,33.7943707 Z M23.2643831,18.6045385 L23.2643831,18.6045385 C23.0437586,18.6045386 22.8649068,18.4256873 22.8649068,18.2050623 C22.8649068,18.2050623 22.8649068,18.2050623 22.8649068,18.2050623 L22.8649068,13.4081075 C22.8649068,13.187259 23.0435341,13.0086312 23.2643831,13.0086312 L27.6391421,13.0086312 C28.1555372,13.0086312 28.6394551,13.2587096 28.9382498,13.6776724 L32.007396,17.9728571 L32.007396,17.9728571 C32.1365425,18.1517322 32.0962295,18.4014336 31.9173546,18.5305806 C31.8490398,18.5799035 31.7668782,18.6063623 31.682619,18.6061744 L23.2643983,18.6061744 L23.2643831,18.6045385 Z M12.4493099,18.6045385 L12.4493099,18.6045385 C12.2286855,18.6043884 12.0499556,18.4254153 12.0501053,18.2047906 C12.0501053,18.1216129 12.0761808,18.0405273 12.1245322,17.9728467 L15.1920534,13.677662 L15.1920535,13.6776619 C15.492298,13.2578528 15.9766603,13.0087172 16.4927862,13.0086207 L20.8675452,13.0086207 C21.0867697,13.0086207 21.2670215,13.187248 21.2670215,13.4080969 L21.2670215,18.2050517 C21.2670215,18.4259002 21.0883942,18.6045385 20.8675452,18.6045385 L12.4493245,18.6045385 L12.4493099,18.6045385 Z M14.8721471,26.6005381 L14.8721471,26.6005381 C14.4304487,26.6005381 14.0723846,26.9586047 14.0723846,27.4003005 C14.0723846,27.8419989 14.4304513,28.200063 14.8721471,28.200063 L17.270627,28.200063 L17.270627,28.200063 C17.7123254,28.200063 18.0703894,27.8419964 18.0703894,27.4003005 C18.0703894,26.9586022 17.7123228,26.6005381 17.270627,26.6005381 L14.8721471,26.6005381 L14.8721471,26.6005381 Z M19.6691019,31.3974929 L19.6691019,31.3974929 C20.1108003,31.3974929 20.4688643,31.0394263 20.4688643,30.5977304 C20.4688643,30.1560321 20.1107977,29.797968 19.6691019,29.797968 L14.8721471,29.797968 L14.8721471,29.797968 C14.4304487,29.797968 14.0723846,30.1560346 14.0723846,30.5977304 C14.0723846,31.0394288 14.4304512,31.3974929 14.8721471,31.3974929 L19.6691019,31.3974929 L19.6691019,31.3974929 Z" id="形状" fill="#FFFFFF" fill-rule="nonzero"></path>
        </g>
    </g>
</svg>