<?xml version="1.0" encoding="UTF-8"?>
<svg width="53px" height="52px" viewBox="0 0 53 52" version="1.1" xmlns="http://www.w3.org/2000/svg" xmlns:xlink="http://www.w3.org/1999/xlink">
    <title>已退回</title>
    <g id="PC端" stroke="none" stroke-width="1" fill="none" fill-rule="evenodd">
        <g id="已退回" transform="translate(0.326923, 0.991379)">
            <ellipse id="椭圆形" fill="#FF4D4F" cx="25.5164835" cy="25.4482759" rx="25.5164835" ry="25.4482759"></ellipse>
            <path d="M38.6700603,36.138796 L38.6700603,17.3091882 L38.6700603,17.3091786 C38.6776982,15.7330842 37.4062126,14.449226 35.8301156,14.4415834 C35.8186092,14.4415277 35.8071026,14.4415415 35.7955963,14.4416249 L34.3595288,14.4416249 L34.3595288,14.4416274 C34.3512054,13.6515819 33.7112292,13.013987 32.9211584,13.0086068 L18.4219775,13.0086068 L18.4219774,13.0086068 C17.6319117,13.0144074 16.9922754,13.6523436 16.9843713,14.4423916 L15.5482936,14.4423916 L15.5482936,14.4423916 C13.9722271,14.43055 12.6849641,15.698607 12.6730509,17.2746684 C12.6730509,17.2861753 12.6730509,17.2976826 12.6730509,17.3091898 L12.6730509,36.1387976 L12.6730509,36.1388006 C12.6658622,37.714895 13.9376884,38.9984231 15.5137879,39.005634 C15.5250382,39.0056855 15.5362887,39.0056705 15.5475389,39.005589 L35.8613829,39.005589 C37.4289867,39.0705873 38.7350718,37.7675636 38.6700717,36.1380193 L38.6700603,36.138796 Z M28.6106384,32.767298 L24.2351177,32.767298 L24.2351177,32.767298 C23.4434726,32.7855843 22.7868931,32.1586535 22.7686068,31.3670059 C22.7503205,30.5753609 23.3772513,29.9187814 24.1688989,29.900495 C24.1909694,29.8999852 24.2130489,29.8999852 24.2351195,29.900495 L28.5464018,29.900495 L28.5464019,29.900495 C29.3380469,29.918781 29.9946264,29.291848 30.0129128,28.500203 C30.0311987,27.7085579 29.4042658,27.0519784 28.6126207,27.0336921 C28.5905505,27.0331823 28.5684714,27.0331823 28.5464011,27.0336921 L22.7332615,27.0336921 L22.7332615,28.467477 L18.3562174,25.5999072 L22.7332615,22.7338609 L22.7332615,24.166879 L28.5464011,24.166879 C30.9628043,24.166879 32.9226835,26.1214135 32.9226835,28.4674719 C32.9226835,30.8127609 30.9627967,32.7673031 28.6114012,32.7673031 L28.6106384,32.767298 Z M31.485089,17.3741883 L19.8580482,17.3741883 L19.8580482,17.3741883 C19.0661924,17.3742937 18.4240729,16.7324522 18.4240729,15.9405964 C18.4240729,15.1487406 19.065809,14.5067277 19.8576648,14.5066211 C19.857792,14.5066211 19.8579192,14.5066211 19.8580464,14.5066211 L31.4850873,14.5066211 L31.4850873,14.5066211 C32.2769431,14.5065157 32.9190626,15.1483572 32.9190626,15.940213 C32.9190626,16.7320688 32.2773265,17.3740816 31.4854707,17.3741883 C31.4853435,17.3741883 31.4852163,17.3741883 31.4850891,17.3741883 L31.485089,17.3741883 Z" id="形状" fill="#FFFFFF" fill-rule="nonzero"></path>
        </g>
    </g>
</svg>