<?xml version="1.0" encoding="UTF-8"?>
<svg width="24px" height="24px" viewBox="0 0 24 24" version="1.1" xmlns="http://www.w3.org/2000/svg" xmlns:xlink="http://www.w3.org/1999/xlink">
    <title>订单比例</title>
    <g id="PC端" stroke="none" stroke-width="1" fill="none" fill-rule="evenodd">
        <g id="订单比例">
            <rect id="矩形" x="0" y="0" width="24" height="24"></rect>
            <g id="Pie-chart" transform="translate(2.000000, 2.000000)" fill="#36CFC9" fill-rule="nonzero">
                <path d="M10.0000122,0.396827095 C15.3035898,0.396827095 19.6031911,4.69642845 19.6031911,10.0000061 C19.6031911,15.3035837 15.3035898,19.603185 10.0000122,19.603185 C4.69643459,19.603185 0.396833233,15.3035837 0.396833233,10.0000061 C0.396833233,4.69642845 4.69643459,0.396827095 10.0000122,0.396827095 Z M1.70634565,10.0000061 C1.70634565,14.580296 5.41974272,18.2936597 10.0000122,18.2936597 C12.0546574,18.2936597 13.9347061,17.5463565 15.3834708,16.309293 L9.57441646,10.5002386 L9.57441651,10.5002386 C9.31081725,10.2365064 9.15276981,9.88547993 9.1300516,9.51329237 L9.12699602,9.42031607 L9.12699602,1.75173572 C4.95658752,2.18824348 1.70634565,5.71435938 1.70634565,10.0000061 L1.70634565,10.0000061 Z M18.2823443,10.4365138 L11.3623687,10.4365138 L16.3093257,15.3834711 L16.3093255,15.3834711 C17.4952971,13.9976455 18.1890673,12.2581457 18.2823443,10.4365138 L18.2823443,10.4365138 Z M10.4365343,1.71769415 L10.4365343,9.12698848 L18.2487327,9.12698848 C17.8270656,5.09976839 14.5227035,1.92895741 10.4365343,1.71812383 L10.4365343,1.71769415 Z" id="形状"></path>
            </g>
        </g>
    </g>
</svg>