<?xml version="1.0" encoding="UTF-8"?>
<svg width="66px" height="66px" viewBox="0 0 66 66" version="1.1" xmlns="http://www.w3.org/2000/svg" xmlns:xlink="http://www.w3.org/1999/xlink">
    <title>编组 10</title>
    <g id="页面-1" stroke="none" stroke-width="1" fill="none" fill-rule="evenodd">
        <g id="画板" transform="translate(-727.000000, -166.000000)">
            <g id="编组-10" transform="translate(727.000000, 166.000000)">
                <g id="停机备份" fill="#FF7B8C">
                    <circle id="椭圆形备份-6" fill-opacity="0.2" cx="33" cy="33" r="33"></circle>
                    <circle id="椭圆形备份-7" cx="33" cy="33" r="23"></circle>
                </g>
                <g id="风险" transform="translate(20.000000, 20.000000)" fill="#FFFFFF" fill-rule="nonzero">
                    <path d="M12.9756401,0.0195000227 C20.1256484,0.0195000227 25.9350302,5.83050678 25.9350302,12.9805151 C25.9350302,20.1305234 20.1256484,25.9399052 12.9756401,25.9399052 C5.82563178,25.9399052 0.0162500189,20.1288984 0.0162500189,12.9788901 C0.0162500189,5.82888178 5.82400678,0.0211250246 12.9740151,0.0211250246 L12.9740151,0.0211250246 Z M12.2628907,6.38167829 C12.2558515,6.39385601 12.2491396,6.40621998 12.2427623,6.41875703 L8.87250836,12.5531392 C8.72673805,12.8065329 8.73489226,13.1201633 8.89363341,13.3656401 C9.03642308,13.6130444 9.29864227,13.7672924 9.58425921,13.7718906 L15.3318909,13.7718906 L12.2655123,18.7070214 C12.0274892,19.0799923 12.1368853,19.5753004 12.5098553,19.8133226 C12.5161032,19.81731 12.5224063,19.8212104 12.5287625,19.8250229 C12.6717627,19.906273 12.8131378,19.946898 12.956138,19.946898 C13.2362248,19.9404421 13.4949048,19.7955824 13.6467638,19.5601476 L17.4850182,13.3656404 C17.6475184,13.1218901 17.6475184,12.7968897 17.5061433,12.5336394 C17.3673384,12.2823204 17.1026198,12.1266043 16.8155175,12.1273889 L10.9638878,12.1273891 L13.6646409,7.19063337 C13.8824691,6.81379036 13.7535623,6.33171323 13.3767185,6.11388427 C13.3645408,6.10684514 13.3521768,6.10013325 13.3396398,6.09375588 C12.9627968,5.87592768 12.4807196,6.00483451 12.2628907,6.38167829 Z" id="形状"></path>
                </g>
            </g>
        </g>
    </g>
</svg>