<?xml version="1.0" encoding="UTF-8"?>
<svg width="28px" height="27px" viewBox="0 0 28 27" version="1.1" xmlns="http://www.w3.org/2000/svg" xmlns:xlink="http://www.w3.org/1999/xlink">
    <title>HistogramOutline</title>
    <g id="页面-1" stroke="none" stroke-width="1" fill="none" fill-rule="evenodd">
        <g id="画板" transform="translate(-43.000000, -108.000000)" fill="#717EAA" fill-rule="nonzero">
            <g id="HistogramOutline" transform="translate(43.000000, 108.000000)">
                <path d="M25.0509698,5.37962927 L25.0509697,5.37962927 C26.6260059,5.37962927 27.9028238,6.65644717 27.9028238,8.23148333 C27.9028238,8.23148333 27.9028238,8.23148336 27.9028238,8.23148336 L27.9028238,23.203723 L27.9028238,23.203723 C27.9028238,24.7787592 26.6260059,26.0555771 25.0509697,26.0555771 C25.0509697,26.0555771 25.0509697,26.0555771 25.0509697,26.0555771 L22.9120783,26.0555771 L22.9120782,26.0555771 C21.337042,26.0555771 20.0602241,24.7787592 20.0602241,23.203723 C20.0602241,23.203723 20.0602241,23.203723 20.0602241,23.203723 L20.0602241,8.23148333 L20.0602241,8.23148373 C20.0602241,6.65644756 21.337042,5.37962927 22.9120782,5.37962927 C22.9120782,5.37962927 22.9120782,5.37962927 22.9120782,5.37962927 L25.0509696,5.37962927 L25.0509698,5.37962927 Z M15.0694656,0.388893867 L15.0694655,0.388893867 C16.6445016,0.388893867 17.9213195,1.66571176 17.9213195,3.24074792 C17.9213195,3.24074792 17.9213195,3.24074792 17.9213195,3.24074792 L17.9213195,23.203723 L17.9213195,23.203723 C17.9213195,24.7787591 16.6445016,26.055577 15.0694655,26.055577 C15.0694655,26.055577 15.0694655,26.055577 15.0694655,26.055577 L12.9305741,26.055577 L12.930574,26.055577 C11.3555378,26.055577 10.0787199,24.7787591 10.0787199,23.203723 C10.0787199,23.203723 10.0787199,23.203723 10.0787199,23.203723 L10.0787199,3.24074792 L10.0787199,3.24074835 C10.0787199,1.66571219 11.3555378,0.388893867 12.930574,0.388893867 L15.0694654,0.388893867 L15.0694656,0.388893867 Z M5.08796136,12.5092891 L5.08796127,12.5092891 C6.66299744,12.5092891 7.93981533,13.7861074 7.93981533,15.3611435 C7.93981533,15.3611435 7.93981533,15.3611436 7.93981533,15.3611436 L7.93981533,23.2037564 L7.93981533,23.2037564 C7.93981533,24.7787926 6.66299744,26.0556105 5.08796127,26.0556105 C5.08796127,26.0556105 5.08796124,26.0556105 5.08796124,26.0556105 L2.94906986,26.0556105 L2.94906974,26.0556105 C1.37403357,26.0556105 0.0972156802,24.7787926 0.0972156802,23.2037564 C0.0972156802,23.2037564 0.0972156802,23.2037564 0.0972156802,23.2037564 L0.0972156802,15.3611436 L0.0972156802,15.3611431 C0.0972156802,13.786107 1.37403357,12.5092891 2.94906974,12.5092891 L5.08796111,12.5092891 L5.08796136,12.5092891 Z M25.0509364,7.51855407 L22.912045,7.51855407 L22.9120451,7.51855407 C22.5505891,7.51855407 22.2463619,7.78912885 22.204072,8.14809999 L22.1990812,8.23151675 L22.1990812,23.2037564 L22.1990812,23.2036625 C22.1990812,23.5651184 22.4695684,23.8693824 22.8285336,23.9117191 L22.9120436,23.9167208 L25.050935,23.9167208 L25.050935,23.9167208 C25.4123909,23.9167208 25.7166181,23.646146 25.758908,23.2871749 L25.7638988,23.2037581 L25.7638988,8.23151846 L25.7638988,8.2316125 C25.7638988,7.87015657 25.4934119,7.56589259 25.1344464,7.52355591 L25.0509364,7.51855407 L25.0509364,7.51855407 Z M15.0694322,2.52781866 L12.9305408,2.52781866 L12.9305408,2.52781866 C12.5690849,2.52781866 12.2648577,2.79839344 12.2225678,3.15736458 L12.217577,3.24078134 L12.217577,23.2037564 L12.217577,23.2036625 C12.217577,23.5651184 12.4880642,23.8693824 12.8470294,23.9117191 L12.9305394,23.9167208 L15.0694307,23.9167208 L15.0694308,23.9167208 C15.4308867,23.9167208 15.7351139,23.646146 15.7774038,23.2871749 L15.7823945,23.2037581 L15.7823945,3.24078306 L15.7823945,3.2408771 C15.7823945,2.87942117 15.5119077,2.57515718 15.1529422,2.5328205 L15.0694322,2.52781866 L15.0694322,2.52781866 Z M5.08792794,14.6482143 L2.94903657,14.6482143 L2.94903657,14.6482143 C2.58758064,14.6482143 2.28335342,14.9187891 2.24106353,15.2777602 L2.23607279,15.361177 L2.23607279,23.2037898 L2.23607279,23.2036959 C2.23607279,23.5651518 2.50656,23.8694158 2.86552512,23.9117525 L2.94903513,23.9167542 L5.08792651,23.9167542 L5.08792652,23.9167542 C5.44938246,23.9167542 5.75360968,23.6461794 5.79589957,23.2872083 L5.80089034,23.2037915 L5.80089034,15.3611787 L5.80089034,15.3612727 C5.80089034,14.9998168 5.53040347,14.6955528 5.17143801,14.6532161 L5.087928,14.6482143 L5.08792794,14.6482143 Z" id="形状"></path>
            </g>
        </g>
    </g>
</svg>