<?xml version="1.0" encoding="UTF-8"?>
<svg width="28px" height="28px" viewBox="0 0 28 28" version="1.1" xmlns="http://www.w3.org/2000/svg" xmlns:xlink="http://www.w3.org/1999/xlink">
    <title>导入</title>
    <g id="页面-1" stroke="none" stroke-width="1" fill="none" fill-rule="evenodd">
        <g id="画板" transform="translate(-43.000000, -330.000000)" fill="#717EAA" fill-rule="nonzero">
            <g id="导入" transform="translate(43.000000, 330.000000)">
                <path d="M0.0224207012,3.34681753 L0.0224207012,24.6259337 C0.0224207012,26.1177972 1.23079668,27.3261554 2.7226495,27.3261554 L23.7158083,27.3261554 C24.3622493,27.3261554 25.3021692,27.2416406 25.963517,26.5727702 C26.6248649,25.9014382 26.6995355,24.9590583 26.6995355,24.3101547 L26.6995355,13.916756 L26.6995355,13.9167362 C26.7009103,13.2858779 26.196415,12.7703266 25.5656742,12.7580293 L25.5656742,12.7580293 C24.9161856,12.7553045 24.3874449,13.279577 24.3846564,13.9290656 L24.3846564,23.3428747 C24.3846564,23.4969978 24.3797332,23.7506777 24.3697501,24.0068214 L24.3697501,24.0068205 C24.3493952,24.5446826 23.9180518,24.9760252 23.3801897,24.9963836 C23.1315687,25.0039052 22.8927935,25.0112899 22.7511156,25.0112899 L3.3641631,25.0112899 L3.36416316,25.0112899 C2.79622557,25.0099367 2.33615902,24.5498692 2.33480749,23.9819343 L2.33480749,3.9907747 C2.33726909,3.42132532 2.79731266,2.96141904 3.36416316,2.96141904 L13.3671149,2.96141904 C13.996189,2.96141904 14.5109363,2.45665596 14.5233805,1.82511917 L14.5233805,1.82512501 C14.5247446,1.17558834 13.9992954,0.647926773 13.3497587,0.646561881 C13.349757,0.646561881 13.3497553,0.646561881 13.3497536,0.646561881 L2.72264234,0.646561881 C1.23077883,0.646561881 0.0224207012,1.8549307 0.0224207012,3.34678352 L0.0224207012,3.34681753 Z M11.8718692,7.11017766 L11.8718693,7.11017766 C11.2333558,7.11063058 10.7161085,7.62861359 10.7165596,8.26712703 C10.7165596,8.26717285 10.7165596,8.26721866 10.7165596,8.26726448 L10.7165596,8.26986283 L10.7435008,15.7841629 L10.7435008,15.7841412 C10.7439417,16.4226547 11.2619153,16.9399127 11.9004288,16.9394722 C11.9004746,16.9394722 11.9005204,16.9394722 11.9005662,16.9394722 L11.9031646,16.9394722 L19.3802576,16.9180013 L19.3802577,16.9180013 C20.0194496,16.9168696 20.5366969,16.3977865 20.5355671,15.7585946 C20.5355669,15.758502 20.5355667,15.7584095 20.5355665,15.7583169 L20.5355666,15.7583284 C20.5344412,15.1191365 20.0153624,14.6018838 19.3761705,14.6030083 C19.376078,14.6030085 19.3759854,14.6030086 19.3758929,14.6030088 L14.6838258,14.6173681 L27.0433482,2.18850652 C27.4940929,1.73557422 27.4923167,1.00311099 27.0393823,0.55236623 C26.58645,0.101621475 25.8539867,0.103397691 25.403242,0.556332132 L13.0460433,12.9824693 L13.0338721,8.26305113 L13.0338721,8.2630544 C13.0319885,7.62451958 12.512864,7.1083914 11.8743265,7.11020501 L11.8718649,7.11020501 L11.8718692,7.11017766 Z" id="形状"></path>
            </g>
        </g>
    </g>
</svg>