<?xml version="1.0" encoding="UTF-8"?>
<svg width="66px" height="66px" viewBox="0 0 66 66" version="1.1" xmlns="http://www.w3.org/2000/svg" xmlns:xlink="http://www.w3.org/1999/xlink">
    <title>编组 8</title>
    <g id="页面-1" stroke="none" stroke-width="1" fill="none" fill-rule="evenodd">
        <g id="画板" transform="translate(-505.000000, -166.000000)">
            <g id="编组-8" transform="translate(505.000000, 166.000000)">
                <g id="停机备份-2" fill="#679CFC">
                    <circle id="椭圆形备份-6" fill-opacity="0.2" cx="33" cy="33" r="33"></circle>
                    <circle id="椭圆形备份-7" cx="33" cy="33" r="23"></circle>
                </g>
                <g id="减号备份" transform="translate(20.000000, 20.000000)" fill="#FFFFFF" fill-rule="nonzero">
                    <path d="M13.0000151,26.0000303 L13.0000146,26.0000303 C5.82029917,26.0000303 -5.68247927e-07,20.1797305 -5.68247927e-07,13.0000151 C-5.68247927e-07,5.82029974 5.82029917,-1.15463329e-14 13.0000146,-1.15463329e-14 L13.000014,-1.15463329e-14 C20.1797294,-1.15463329e-14 26.0000291,5.82029974 26.0000291,13.0000151 C26.0000291,20.1797305 20.1797294,26.0000303 13.000014,26.0000303 L13.0000151,26.0000303 Z M6.00001479,12.0000042 L6.00001479,14.0000261 L20.0000148,14.0000261 L20.0000148,12.0000042 L6.00001479,12.0000042 Z" id="形状"></path>
                </g>
            </g>
        </g>
    </g>
</svg>