<?xml version="1.0" encoding="UTF-8"?>
<svg width="26px" height="28px" viewBox="0 0 26 28" version="1.1" xmlns="http://www.w3.org/2000/svg" xmlns:xlink="http://www.w3.org/1999/xlink">
    <title>结果</title>
    <g id="页面-1" stroke="none" stroke-width="1" fill="none" fill-rule="evenodd">
        <g id="画板" transform="translate(-43.000000, -519.000000)" fill="#717EAA" fill-rule="nonzero">
            <g id="结果" transform="translate(43.000000, 519.000000)">
                <path d="M23.5669127,1.55146227 L19.7276524,1.55146227 C19.322238,0.841628886 18.5765906,0.358139952 17.7163384,0.358139952 L8.33021775,0.358139952 C7.46996559,0.358139952 6.72575077,0.840196327 6.31890378,1.55146227 L2.46389094,1.55146227 C1.17458711,1.55289483 0.130967293,2.61657049 0.130251013,3.92951155 L0.130251013,25.4300798 C0.130251013,26.740872 1.17816851,27.8081291 2.4653235,27.8081291 L23.581255,27.8081291 C24.8705589,27.8059802 25.9141787,26.7423046 25.9163275,25.4300798 L25.9163275,3.92951155 C25.9113136,2.61227281 24.8598147,1.54859715 23.5669294,1.55146227 L23.5669127,1.55146227 Z M17.7113245,2.75767763 L17.7156221,5.13286179 L8.33450983,5.12068503 L8.33450983,2.75767763 L8.32949587,2.74550087 L17.7113356,2.75767763 L17.7113245,2.75767763 Z M2.47462394,25.430091 L2.46387975,3.9381125 L5.9908308,3.9381125 L5.9908308,5.11997434 C5.9908308,6.44222705 7.03946458,7.51951202 8.33020096,7.51951202 L17.7163216,7.51951202 C19.0127882,7.51234922 20.0585569,6.44007821 20.0556918,5.11997434 L20.0556918,3.9381125 L23.5726261,3.92951715 L23.5812215,25.4207682 L2.47460716,25.430091 L2.47462394,25.430091 Z M18.601666,11.5127725 L18.6016659,11.5127724 C18.135516,11.0753073 17.4029911,11.0985584 16.9655259,11.5647089 C16.9585551,11.5721368 16.9516827,11.5796563 16.9449104,11.5872656 L11.3865783,17.774497 L9.11167337,15.1786986 L9.11167341,15.1786987 C8.69294904,14.6961694 7.96233795,14.6444434 7.47980592,15.0631694 C7.47213733,15.069824 7.46455668,15.0765793 7.45706596,15.0834334 L7.45706592,15.0834335 C6.97420373,15.5267771 6.93288613,16.2742656 7.36394953,16.7681238 L10.501983,20.3487958 C10.7233135,20.6009264 11.0377603,20.7456149 11.3693979,20.7477637 L11.3765607,20.7477637 C11.7046169,20.7477637 12.0190638,20.6066566 12.2411106,20.35954 L18.6754586,13.1988954 C19.1123893,12.7118251 19.0787241,11.9568661 18.6016817,11.5127725 L18.601666,11.5127725 Z" id="形状"></path>
            </g>
        </g>
    </g>
</svg>