<?xml version="1.0" encoding="UTF-8"?>
<svg width="66px" height="66px" viewBox="0 0 66 66" version="1.1" xmlns="http://www.w3.org/2000/svg" xmlns:xlink="http://www.w3.org/1999/xlink">
    <title>正常</title>
    <g id="页面-1" stroke="none" stroke-width="1" fill="none" fill-rule="evenodd">
        <g id="画板" transform="translate(-280.000000, -166.000000)">
            <g id="正常" transform="translate(280.000000, 166.000000)">
                <circle id="椭圆形备份-4" fill-opacity="0.2" fill="#83D587" cx="33" cy="33" r="33"></circle>
                <circle id="椭圆形备份-5" fill="#83D587" cx="33" cy="33" r="23"></circle>
                <g id="对号" transform="translate(20.000000, 20.000000)" fill="#FFFFFF" fill-rule="nonzero">
                    <path d="M12.999999,0 L12.999999,0 C5.82029197,0 -1.00011637e-06,5.82029297 -1.00011637e-06,13 C-1.00011637e-06,20.179707 5.82029197,26 12.999999,26 C20.179706,26 25.999999,20.179707 25.999999,13 L25.999999,13 C25.999999,5.82029354 20.179706,0 12.999999,0 L12.999999,0 Z M20.5919996,8.918 L11.8559996,18.798 L11.8559996,18.798 C11.6272173,19.079709 11.2829001,19.2423055 10.9199996,19.2400242 L10.9199996,19.2400242 C10.5807935,19.2420377 10.2542269,19.1114107 10.0099996,18.876 L5.45999957,14.404 L5.45999949,14.4039999 C4.95023953,13.9014204 4.94442,13.0807599 5.44699965,12.5709999 C5.94957914,12.06124 6.77023969,12.0554204 7.27999965,12.5580001 L10.8159996,16.0420001 L18.6159996,7.20200009 L18.6159998,7.20199998 C19.1303148,6.70336365 19.9476847,6.70336365 20.4619998,7.20200021 L20.4619998,7.20200019 C20.9319167,7.65934883 20.9876542,8.39507773 20.5919998,8.91800019 L20.5919996,8.918 Z" id="形状"></path>
                </g>
            </g>
        </g>
    </g>
</svg>