<?xml version="1.0" standalone="no"?><!DOCTYPE svg PUBLIC "-//W3C//DTD SVG 1.1//EN" "http://www.w3.org/Graphics/SVG/1.1/DTD/svg11.dtd"><svg t="1615989117127" class="icon" viewBox="0 0 1024 1024" version="1.1" xmlns="http://www.w3.org/2000/svg" p-id="3268" xmlns:xlink="http://www.w3.org/1999/xlink" width="200" height="200"><defs><style type="text/css"></style></defs><path d="M512 0C229.2 0 0 229.2 0 512s229.2 512 512 512 512-229.2 512-512S794.8 0 512 0z m-41.8 796.7c-37.6 21.7-93.8-7.7-82.7-47 11.2-39.4 52.7-186.5 69.6-244.9 17-58.4-62.9 17-87.3 37.3-24.5 20.3 67.4-95.1 100.4-115.6 32.9-20.4 91.2-5 83.2 42.3s-59.2 220-70.8 261.1c-11.7 41.1 71.7-38.1 88.1-48.1 16.4-10-62.9 93.2-100.5 114.9z m71.6-403.6c-27.8 1.1-51.1-20.6-52.2-48.4-1.1-27.8 20.6-51.1 48.4-52.2h3.8c27.8 1.1 49.4 24.4 48.4 52.2-1.1 26.4-22.1 47.4-48.4 48.4z" fill="#FFA93F" p-id="3269"></path></svg>