<?xml version="1.0" encoding="UTF-8"?>
<svg width="66px" height="66px" viewBox="0 0 66 66" version="1.1" xmlns="http://www.w3.org/2000/svg" xmlns:xlink="http://www.w3.org/1999/xlink">
    <title>号码检测总数</title>
    <g id="页面-1" stroke="none" stroke-width="1" fill="none" fill-rule="evenodd">
        <g id="画板" transform="translate(-58.000000, -166.000000)">
            <g id="号码检测总数" transform="translate(58.000000, 166.000000)">
                <circle id="椭圆形" fill-opacity="0.2" fill="#FFCC2E" cx="33" cy="33" r="33"></circle>
                <circle id="椭圆形备份" fill="#FFCC2E" cx="33" cy="33" r="23"></circle>
                <g id="统计分析" transform="translate(20.000000, 20.000000)" fill="#FFFFFF" fill-rule="nonzero">
                    <path d="M16.6494177,12.3763094 L19.0682295,12.3763094 L24.0121061,7.94737636 L24.0121061,7.94737665 C23.7960414,7.42619405 23.5518965,6.91811006 23.2808374,6.42554064 L16.7244197,12.2787561 L16.6244172,12.3698061 M13.0868267,0.0130179419 L13.0868267,2.10066478 L15.0993788,0.292671568 L15.0993788,0.292671702 C14.4368691,0.143160408 13.7638246,0.0496377622 13.0868267,0.0130179419 M23.4308418,12.3698062 L24.8621288,11.0690917 L24.8621288,11.0690944 C24.7709065,10.4529063 24.6372256,9.844337 24.462121,9.2480991 L20.9995325,12.3503033 L23.4433449,12.3503033 M19.3619906,2.09416868 L13.1118308,7.7002488 L13.1118308,9.8919528 L20.668274,3.10872646 L20.668274,3.10872602 C20.2561853,2.74485112 19.8242016,2.40609882 19.3744904,2.09416868 M16.5931693,0.663382678 L13.1118303,3.78509758 L13.1118303,5.97680158 L18.2119612,1.42430069 L18.2119612,1.42430098 C17.6903268,1.13854517 17.1492827,0.892920983 16.5931698,0.689397264 M22.5995788,5.31343746 L22.5995788,5.31343818 C22.2878496,4.87323776 21.9496647,4.45400629 21.5870529,4.05825373 L13.1118362,11.6414195 L13.1118362,12.3763232 L14.7243774,12.3763232 L22.5995788,5.31344326 M11.930556,2.43555519e-05 L11.930556,2.43555519e-05 C5.03430982,0.334569685 -0.295562786,6.42296295 0.0259542239,13.5988171 C0.146549837,16.290407 1.06750429,18.8765934 2.66156849,21.0000607 L11.930556,12.6819912 L11.930556,2.43555519e-05 M12.7368261,13.6054985 L3.44283847,21.9300716 L3.44283847,21.9300716 C8.18607499,27.149773 16.0977275,27.3801163 21.1140423,22.4445677 C23.4629085,20.133518 24.8600365,16.9654855 25.01214,13.6054985 L12.7368261,13.6054985" id="形状"></path>
                </g>
            </g>
        </g>
    </g>
</svg>