<?xml version="1.0" encoding="UTF-8"?>
<svg width="20px" height="22px" viewBox="0 0 48 48" version="1.1" xmlns="http://www.w3.org/2000/svg" xmlns:xlink="http://www.w3.org/1999/xlink">
    <title>bell备份</title>
    <g id="页面-1" stroke="none" stroke-width="1" fill="none" fill-rule="evenodd">
        <g id="bell备份" fill="#ccc" fill-rule="nonzero">
            <rect id="矩形" opacity="0" x="0" y="0" width="48" height="48"></rect>
            <path d="M13.6738472,11.9602233 L16.0767137,14.3742048 C14.8894921,16.0206261 14.25,17.9912326 14.25,20.0625 L14.25,20.0625 L14.25,36 L33.75,36 L33.75,32.131 L37.125,35.522 L37.125,36 L39.75,39 C39.75,39.20625 39.58125,39.375 39.375,39.375 L39.375,39.375 L29.25,39.375 C29.25,42.271875 26.896875,44.625 24,44.625 C21.103125,44.625 18.75,42.271875 18.75,39.375 L18.75,39.375 L8.625,39.375 C8.41875,39.375 8.25,39.20625 8.25,39 L8.25,39 L8.25,37.5 C8.25,36.6703125 8.9203125,36 9.75,36 L9.75,36 L10.875,36 L10.875,20.0625 C10.875,17.0037798 11.920607,14.190672 13.6738472,11.9602233 Z M26.25,39.375 L21.75,39.375 C21.75,40.6171875 22.7578125,41.625 24,41.625 C25.2421875,41.625 26.25,40.6171875 26.25,39.375 L26.25,39.375 Z M24,3.375 C25.0359375,3.375 25.875,4.2140625 25.875,5.25 L25.875,5.25 L25.875,7.0734375 C32.2359375,7.9828125 37.125,13.4484375 37.125,20.0625 L37.125,20.0625 L37.125,30.861 L33.75,27.47 L33.75,20.0625 C33.75,17.5695652 32.8236295,15.222448 31.1308776,13.4108655 L30.8953125,13.1671875 C29.053125,11.325 26.60625,10.3125 24,10.3125 C21.9727329,10.3125 20.0418952,10.9251111 18.417067,12.0642952 L16.0119035,9.64878333 C17.7558839,8.30994611 19.845971,7.399253 22.125,7.0734375 L22.125,7.0734375 L22.125,5.25 C22.125,4.2140625 22.9640625,3.375 24,3.375 Z" id="形状结合"></path>
            <path d="M6.65706483,8.92002121 C6.01487465,8.27532166 6.01487465,7.2327181 6.65706481,6.58801852 C7.29344142,5.94769737 8.32840942,5.94450479 8.96873048,6.58088109 C8.971117,6.58325292 8.97349619,6.58563211 8.97586803,6.58801864 L42.2179067,39.9862489 C42.8600969,40.6309485 42.8600969,41.6735521 42.2179067,42.3182516 C41.5815302,42.9585727 40.5465622,42.9617653 39.9062411,42.3253892 C39.9038546,42.3230173 39.9014754,42.3206382 39.8991036,42.3182516 L37.0457003,39.4516483 L6.65706483,8.92002121 Z" id="路径"></path>
        </g>
    </g>
</svg>
