<?xml version="1.0" encoding="UTF-8"?>
<svg width="48px" height="48px" viewBox="0 0 48 48" version="1.1" xmlns="http://www.w3.org/2000/svg" xmlns:xlink="http://www.w3.org/1999/xlink">
    <title>bell</title>
    <g id="页面-1" stroke="none" stroke-width="1" fill="none" fill-rule="evenodd">
        <g id="bell" fill="#52b7b4" fill-rule="nonzero">
            <rect id="矩形" opacity="0" x="0" y="0" width="48" height="48"></rect>
            <path d="M38.25,36 L37.125,36 L37.125,20.0625 C37.125,13.4484375 32.2359375,7.9828125 25.875,7.0734375 L25.875,5.25 C25.875,4.2140625 25.0359375,3.375 24,3.375 C22.9640625,3.375 22.125,4.2140625 22.125,5.25 L22.125,7.0734375 C15.7640625,7.9828125 10.875,13.4484375 10.875,20.0625 L10.875,36 L9.75,36 C8.9203125,36 8.25,36.6703125 8.25,37.5 L8.25,39 C8.25,39.20625 8.41875,39.375 8.625,39.375 L18.75,39.375 C18.75,42.271875 21.103125,44.625 24,44.625 C26.896875,44.625 29.25,42.271875 29.25,39.375 L39.375,39.375 C39.58125,39.375 39.75,39.20625 39.75,39 L39.75,37.5 C39.75,36.6703125 39.0796875,36 38.25,36 Z M24,41.625 C22.7578125,41.625 21.75,40.6171875 21.75,39.375 L26.25,39.375 C26.25,40.6171875 25.2421875,41.625 24,41.625 Z M14.25,36 L14.25,20.0625 C14.25,17.45625 15.2625,15.009375 17.1046875,13.1671875 C18.946875,11.325 21.39375,10.3125 24,10.3125 C26.60625,10.3125 29.053125,11.325 30.8953125,13.1671875 C32.7375,15.009375 33.75,17.45625 33.75,20.0625 L33.75,36 L14.25,36 Z" id="形状"></path>
        </g>
    </g>
</svg>
