<?xml version="1.0" encoding="UTF-8"?>
<svg width="1592px" height="1000px" viewBox="0 0 1592 1000" version="1.1" xmlns="http://www.w3.org/2000/svg" xmlns:xlink="http://www.w3.org/1999/xlink">
    <title>编组 20</title>
    <defs>
        <rect id="path-1" x="0" y="0" width="364" height="116" rx="4"></rect>
        <filter x="-3.3%" y="-10.3%" width="106.6%" height="120.7%" filterUnits="objectBoundingBox" id="filter-2">
            <feOffset dx="0" dy="0" in="SourceAlpha" result="shadowOffsetOuter1"></feOffset>
            <feGaussianBlur stdDeviation="4" in="shadowOffsetOuter1" result="shadowBlurOuter1"></feGaussianBlur>
            <feColorMatrix values="0 0 0 0 0   0 0 0 0 0   0 0 0 0 0  0 0 0 0.1 0" type="matrix" in="shadowBlurOuter1"></feColorMatrix>
        </filter>
        <rect id="path-3" x="0" y="0" width="364" height="116" rx="4"></rect>
        <filter x="-3.3%" y="-10.3%" width="106.6%" height="120.7%" filterUnits="objectBoundingBox" id="filter-4">
            <feOffset dx="0" dy="0" in="SourceAlpha" result="shadowOffsetOuter1"></feOffset>
            <feGaussianBlur stdDeviation="4" in="shadowOffsetOuter1" result="shadowBlurOuter1"></feGaussianBlur>
            <feColorMatrix values="0 0 0 0 0   0 0 0 0 0   0 0 0 0 0  0 0 0 0.1 0" type="matrix" in="shadowBlurOuter1"></feColorMatrix>
        </filter>
        <rect id="path-5" x="0" y="0" width="364" height="116" rx="4"></rect>
        <filter x="-3.3%" y="-10.3%" width="106.6%" height="120.7%" filterUnits="objectBoundingBox" id="filter-6">
            <feOffset dx="0" dy="0" in="SourceAlpha" result="shadowOffsetOuter1"></feOffset>
            <feGaussianBlur stdDeviation="4" in="shadowOffsetOuter1" result="shadowBlurOuter1"></feGaussianBlur>
            <feColorMatrix values="0 0 0 0 0   0 0 0 0 0   0 0 0 0 0  0 0 0 0.1 0" type="matrix" in="shadowBlurOuter1"></feColorMatrix>
        </filter>
        <rect id="path-7" x="0" y="0" width="364" height="116" rx="4"></rect>
        <filter x="-3.3%" y="-10.3%" width="106.6%" height="120.7%" filterUnits="objectBoundingBox" id="filter-8">
            <feOffset dx="0" dy="0" in="SourceAlpha" result="shadowOffsetOuter1"></feOffset>
            <feGaussianBlur stdDeviation="4" in="shadowOffsetOuter1" result="shadowBlurOuter1"></feGaussianBlur>
            <feColorMatrix values="0 0 0 0 0   0 0 0 0 0   0 0 0 0 0  0 0 0 0.1 0" type="matrix" in="shadowBlurOuter1"></feColorMatrix>
        </filter>
        <rect id="path-9" x="0" y="0" width="364" height="116" rx="4"></rect>
        <filter x="-3.3%" y="-10.3%" width="106.6%" height="120.7%" filterUnits="objectBoundingBox" id="filter-10">
            <feOffset dx="0" dy="0" in="SourceAlpha" result="shadowOffsetOuter1"></feOffset>
            <feGaussianBlur stdDeviation="4" in="shadowOffsetOuter1" result="shadowBlurOuter1"></feGaussianBlur>
            <feColorMatrix values="0 0 0 0 0   0 0 0 0 0   0 0 0 0 0  0 0 0 0.1 0" type="matrix" in="shadowBlurOuter1"></feColorMatrix>
        </filter>
        <rect id="path-11" x="0" y="0" width="364" height="116" rx="4"></rect>
        <filter x="-3.3%" y="-10.3%" width="106.6%" height="120.7%" filterUnits="objectBoundingBox" id="filter-12">
            <feOffset dx="0" dy="0" in="SourceAlpha" result="shadowOffsetOuter1"></feOffset>
            <feGaussianBlur stdDeviation="4" in="shadowOffsetOuter1" result="shadowBlurOuter1"></feGaussianBlur>
            <feColorMatrix values="0 0 0 0 0   0 0 0 0 0   0 0 0 0 0  0 0 0 0.1 0" type="matrix" in="shadowBlurOuter1"></feColorMatrix>
        </filter>
        <rect id="path-13" x="0" y="0" width="364" height="116" rx="4"></rect>
        <filter x="-3.3%" y="-10.3%" width="106.6%" height="120.7%" filterUnits="objectBoundingBox" id="filter-14">
            <feOffset dx="0" dy="0" in="SourceAlpha" result="shadowOffsetOuter1"></feOffset>
            <feGaussianBlur stdDeviation="4" in="shadowOffsetOuter1" result="shadowBlurOuter1"></feGaussianBlur>
            <feColorMatrix values="0 0 0 0 0   0 0 0 0 0   0 0 0 0 0  0 0 0 0.1 0" type="matrix" in="shadowBlurOuter1"></feColorMatrix>
        </filter>
        <rect id="path-15" x="0" y="0" width="364" height="116" rx="4"></rect>
        <filter x="-3.3%" y="-10.3%" width="106.6%" height="120.7%" filterUnits="objectBoundingBox" id="filter-16">
            <feOffset dx="0" dy="0" in="SourceAlpha" result="shadowOffsetOuter1"></feOffset>
            <feGaussianBlur stdDeviation="4" in="shadowOffsetOuter1" result="shadowBlurOuter1"></feGaussianBlur>
            <feColorMatrix values="0 0 0 0 0   0 0 0 0 0   0 0 0 0 0  0 0 0 0.1 0" type="matrix" in="shadowBlurOuter1"></feColorMatrix>
        </filter>
    </defs>
    <g id="PC端" stroke="none" stroke-width="1" fill="none" fill-rule="evenodd">
        <g id="编组-20" transform="translate(1.000000, 1.000000)">
            <rect id="矩形备份-14" stroke="#DFDCDF" fill="#FFFFFF" x="0" y="67" width="1590" height="369" rx="2"></rect>
            <g id="编组-15" transform="translate(22.000000, 153.000000)">
                <g id="矩形">
                    <use fill="black" fill-opacity="1" filter="url(#filter-2)" xlink:href="#path-1"></use>
                    <use fill="#FFFFFF" fill-rule="evenodd" xlink:href="#path-1"></use>
                </g>
                <circle id="椭圆形" fill="#FF7A45" cx="45" cy="57" r="24"></circle>
                <text id="待审核（条）" font-family="PingFangSC-Regular, PingFang SC" font-size="16" font-weight="normal" fill="#333333">
                    <tspan x="83" y="40">待审核（条）</tspan>
                </text>
                <text id="48" font-family="PingFangSC-Semibold, PingFang SC" font-size="30" font-weight="500" fill="#333333">
                    <tspan x="84" y="80">48</tspan>
                </text>
                <text id="较昨天" font-family="PingFangSC-Regular, PingFang SC" font-size="16" font-weight="normal" fill="#333333">
                    <tspan x="271" y="45">较昨天</tspan>
                </text>
                <line x1="232.5" y1="36.5" x2="232.5" y2="76.5" id="直线-2" stroke="#DFDCDF" stroke-linecap="square"></line>
                <text id="0%" font-family="PingFangSC-Regular, PingFang SC" font-size="16" font-weight="normal" fill="#2CB032">
                    <tspan x="282.94" y="75">0%</tspan>
                </text>
            </g>
            <g id="编组-15备份-4" transform="translate(22.000000, 300.000000)">
                <g id="矩形">
                    <use fill="black" fill-opacity="1" filter="url(#filter-4)" xlink:href="#path-3"></use>
                    <use fill="#FFFFFF" fill-rule="evenodd" xlink:href="#path-3"></use>
                </g>
                <circle id="椭圆形" fill="#597EF7" cx="45" cy="57" r="24"></circle>
                <text id="已签收（条）" font-family="PingFangSC-Regular, PingFang SC" font-size="16" font-weight="normal" fill="#333333">
                    <tspan x="83" y="40">已签收（条）</tspan>
                </text>
                <text id="132" font-family="PingFangSC-Semibold, PingFang SC" font-size="30" font-weight="500" fill="#333333">
                    <tspan x="84" y="80">132</tspan>
                </text>
                <text id="较昨天" font-family="PingFangSC-Regular, PingFang SC" font-size="16" font-weight="normal" fill="#333333">
                    <tspan x="271" y="45">较昨天</tspan>
                </text>
                <line x1="232.5" y1="36.5" x2="232.5" y2="76.5" id="直线-2" stroke="#DFDCDF" stroke-linecap="square"></line>
                <text id="39%↑" font-family="PingFangSC-Regular, PingFang SC" font-size="16" font-weight="normal" fill="#FD3B30">
                    <tspan x="270.14" y="75">39%↑</tspan>
                </text>
            </g>
            <g id="编组-15备份" transform="translate(416.000000, 153.000000)">
                <g id="矩形">
                    <use fill="black" fill-opacity="1" filter="url(#filter-6)" xlink:href="#path-5"></use>
                    <use fill="#FFFFFF" fill-rule="evenodd" xlink:href="#path-5"></use>
                </g>
                <circle id="椭圆形" fill="#9254DE" cx="45" cy="57" r="24"></circle>
                <text id="已审核（条）" font-family="PingFangSC-Regular, PingFang SC" font-size="16" font-weight="normal" fill="#333333">
                    <tspan x="83" y="40">已审核（条）</tspan>
                </text>
                <text id="38" font-family="PingFangSC-Semibold, PingFang SC" font-size="30" font-weight="500" fill="#333333">
                    <tspan x="84" y="80">38</tspan>
                </text>
                <text id="较昨天" font-family="PingFangSC-Regular, PingFang SC" font-size="16" font-weight="normal" fill="#333333">
                    <tspan x="271" y="45">较昨天</tspan>
                </text>
                <line x1="232.5" y1="36.5" x2="232.5" y2="76.5" id="直线-2" stroke="#DFDCDF" stroke-linecap="square"></line>
                <text id="0%" font-family="PingFangSC-Regular, PingFang SC" font-size="16" font-weight="normal" fill="#2CB032">
                    <tspan x="282.94" y="75">0%</tspan>
                </text>
            </g>
            <g id="编组-15备份-5" transform="translate(416.000000, 300.000000)">
                <g id="矩形">
                    <use fill="black" fill-opacity="1" filter="url(#filter-8)" xlink:href="#path-7"></use>
                    <use fill="#FFFFFF" fill-rule="evenodd" xlink:href="#path-7"></use>
                </g>
                <circle id="椭圆形" fill="#36CFC9" cx="45" cy="57" r="24"></circle>
                <text id="跟进中（条）" font-family="PingFangSC-Regular, PingFang SC" font-size="16" font-weight="normal" fill="#333333">
                    <tspan x="83" y="40">跟进中（条）</tspan>
                </text>
                <text id="18" font-family="PingFangSC-Semibold, PingFang SC" font-size="30" font-weight="500" fill="#333333">
                    <tspan x="84" y="80">18</tspan>
                </text>
                <text id="较昨天" font-family="PingFangSC-Regular, PingFang SC" font-size="16" font-weight="normal" fill="#333333">
                    <tspan x="271" y="45">较昨天</tspan>
                </text>
                <line x1="232.5" y1="36.5" x2="232.5" y2="76.5" id="直线-2" stroke="#DFDCDF" stroke-linecap="square"></line>
                <text id="0%" font-family="PingFangSC-Regular, PingFang SC" font-size="16" font-weight="normal" fill="#2CB032">
                    <tspan x="282.94" y="75">0%</tspan>
                </text>
            </g>
            <g id="编组-15备份-2" transform="translate(810.000000, 153.000000)">
                <g id="矩形">
                    <use fill="black" fill-opacity="1" filter="url(#filter-10)" xlink:href="#path-9"></use>
                    <use fill="#FFFFFF" fill-rule="evenodd" xlink:href="#path-9"></use>
                </g>
                <circle id="椭圆形" fill="#40A9FF" cx="45" cy="57" r="24"></circle>
                <text id="已发货（条）" font-family="PingFangSC-Regular, PingFang SC" font-size="16" font-weight="normal" fill="#333333">
                    <tspan x="83" y="40">已发货（条）</tspan>
                </text>
                <text id="54" font-family="PingFangSC-Semibold, PingFang SC" font-size="30" font-weight="500" fill="#333333">
                    <tspan x="84" y="80">54</tspan>
                </text>
                <text id="较昨天" font-family="PingFangSC-Regular, PingFang SC" font-size="16" font-weight="normal" fill="#333333">
                    <tspan x="271" y="45">较昨天</tspan>
                </text>
                <line x1="232.5" y1="36.5" x2="232.5" y2="76.5" id="直线-2" stroke="#DFDCDF" stroke-linecap="square"></line>
                <text id="0%" font-family="PingFangSC-Regular, PingFang SC" font-size="16" font-weight="normal" fill="#2CB032">
                    <tspan x="282.94" y="75">0%</tspan>
                </text>
            </g>
            <g id="编组-15备份-6" transform="translate(810.000000, 300.000000)">
                <g id="矩形">
                    <use fill="black" fill-opacity="1" filter="url(#filter-12)" xlink:href="#path-11"></use>
                    <use fill="#FFFFFF" fill-rule="evenodd" xlink:href="#path-11"></use>
                </g>
                <circle id="椭圆形" fill="#73D13D" cx="45" cy="57" r="24"></circle>
                <text id="已激活（人）" font-family="PingFangSC-Regular, PingFang SC" font-size="16" font-weight="normal" fill="#333333">
                    <tspan x="83" y="40">已激活（人）</tspan>
                </text>
                <text id="138" font-family="PingFangSC-Semibold, PingFang SC" font-size="30" font-weight="500" fill="#333333">
                    <tspan x="84" y="80">138</tspan>
                </text>
                <text id="较昨天" font-family="PingFangSC-Regular, PingFang SC" font-size="16" font-weight="normal" fill="#333333">
                    <tspan x="271" y="45">较昨天</tspan>
                </text>
                <line x1="232.5" y1="36.5" x2="232.5" y2="76.5" id="直线-2" stroke="#DFDCDF" stroke-linecap="square"></line>
                <text id="239%↑" fill="#FF3B30" fill-rule="nonzero" font-family="PingFangSC-Regular, PingFang SC" font-size="16" font-weight="normal">
                    <tspan x="265.34" y="75">239%↑</tspan>
                </text>
            </g>
            <g id="编组-15备份-3" transform="translate(1204.000000, 153.000000)">
                <g id="矩形">
                    <use fill="black" fill-opacity="1" filter="url(#filter-14)" xlink:href="#path-13"></use>
                    <use fill="#FFFFFF" fill-rule="evenodd" xlink:href="#path-13"></use>
                </g>
                <circle id="椭圆形" fill="#F759AB" cx="45" cy="57" r="24"></circle>
                <text id="在途中（条）" font-family="PingFangSC-Regular, PingFang SC" font-size="16" font-weight="normal" fill="#333333">
                    <tspan x="83" y="40">在途中（条）</tspan>
                </text>
                <text id="120" font-family="PingFangSC-Semibold, PingFang SC" font-size="30" font-weight="500" fill="#333333">
                    <tspan x="84" y="80">120</tspan>
                </text>
                <text id="较昨天" font-family="PingFangSC-Regular, PingFang SC" font-size="16" font-weight="normal" fill="#333333">
                    <tspan x="271" y="45">较昨天</tspan>
                </text>
                <line x1="232.5" y1="36.5" x2="232.5" y2="76.5" id="直线-2" stroke="#DFDCDF" stroke-linecap="square"></line>
                <text id="0%" font-family="PingFangSC-Regular, PingFang SC" font-size="16" font-weight="normal" fill="#2CB032">
                    <tspan x="282.94" y="75">0%</tspan>
                </text>
            </g>
            <g id="已审核" transform="translate(449.000000, 200.000000)" fill="#FFFFFF" fill-rule="nonzero">
                <path d="M12.0924155,18.0408245 L0.27840172,18.0408245 L0.27840172,20.4168272 L14.5212183,20.4168272 L12.0924155,18.0408245 Z M18.1512225,20.4168272 L18.4284228,20.4168272 L18.4284228,20.1528269 L18.1512225,20.4168272 Z M21.7944268,11.0712164 L16.3428204,16.4040226 L14.1384178,14.2524201 L12.2640157,16.1136222 L16.3428204,20.1000269 L23.6688289,12.9324185 L21.7944268,11.0712164 Z M16.3428204,14.3052201 L17.715622,12.9588186 C17.5308218,12.8532184 17.3196216,12.8004184 17.0952213,12.8004184 L14.7984186,12.8004184 L16.3428204,14.3052201 L16.3428204,14.3052201 Z M10.1388132,16.1268223 L13.4652171,12.8004184 L12.6864162,12.8004184 C12.2904157,12.3120178 12.0264154,11.7972172 11.9604153,11.2032165 C11.7756151,8.74801367 14.4156182,7.59961233 14.4156182,4.61640886 C14.4156182,2.10840594 12.4752159,0.0492035482 9.3732123,0.0492035482 C6.27120869,0.0492035482 4.30440641,2.10840594 4.30440641,4.64280889 C4.30440641,7.63921238 6.93120946,8.78761372 6.75960926,11.2296166 C6.69360919,11.8368173 6.42960888,12.3516179 6.03360842,12.8268184 L1.62480329,12.8268184 C0.898802442,12.8268184 0.291601736,13.4340191 0.291601736,14.16002 L0.291601736,16.8528231 L10.8780141,16.8528231 L10.1388132,16.1268223 Z" id="形状"></path>
            </g>
            <g id="编组-15备份-7" transform="translate(1204.000000, 300.000000)">
                <g id="矩形">
                    <use fill="black" fill-opacity="1" filter="url(#filter-16)" xlink:href="#path-15"></use>
                    <use fill="#FFFFFF" fill-rule="evenodd" xlink:href="#path-15"></use>
                </g>
                <circle id="椭圆形" fill="#FF4D4F" cx="45" cy="57" r="24"></circle>
                <text id="已退回（人）" font-family="PingFangSC-Regular, PingFang SC" font-size="16" font-weight="normal" fill="#333333">
                    <tspan x="83" y="40">已退回（人）</tspan>
                </text>
                <text id="3" font-family="PingFangSC-Semibold, PingFang SC" font-size="30" font-weight="500" fill="#333333">
                    <tspan x="84" y="80">3</tspan>
                </text>
                <text id="较昨天" font-family="PingFangSC-Regular, PingFang SC" font-size="16" font-weight="normal" fill="#333333">
                    <tspan x="271" y="45">较昨天</tspan>
                </text>
                <line x1="232.5" y1="36.5" x2="232.5" y2="76.5" id="直线-2" stroke="#DFDCDF" stroke-linecap="square"></line>
                <text id="0%" font-family="PingFangSC-Regular, PingFang SC" font-size="16" font-weight="normal" fill="#2CB032">
                    <tspan x="282.94" y="75">0%</tspan>
                </text>
            </g>
            <rect id="矩形" stroke="#DFDCDF" fill="#FFFFFF" x="961" y="466" width="629" height="532" rx="2"></rect>
            <rect id="矩形备份-13" stroke="#DFDCDF" fill="#FFFFFF" x="0" y="466" width="931" height="532" rx="2"></rect>
            <g id="已发货" transform="translate(843.000000, 201.000000)" fill="#FFFFFF" fill-rule="nonzero">
                <path d="M19.8622965,14.1499172 C20.647217,14.1598772 21.2804591,14.793718 21.2904177,15.5787579 L21.2904178,15.5787607 C21.2964058,15.9650862 21.1434242,16.3369085 20.8672954,16.6071619 C20.3194948,17.1655235 19.4227328,17.1734431 18.8646126,16.624922 L18.8646124,16.6249218 C18.5818738,16.3510683 18.4252151,15.9723226 18.4318924,15.5787596 L18.4318924,15.5787552 C18.4278173,15.2013641 18.5774478,14.8385536 18.8463757,14.5737564 L18.8463756,14.5737564 C19.1106033,14.2952365 19.4800279,14.1410457 19.8638573,14.1490754 L19.8622973,14.1499154 L19.8622965,14.1499172 Z M4.48416147,14.1289172 L4.4841614,14.1289172 C4.10126018,14.1213649 3.73277068,14.2748732 3.46847975,14.5520372 L3.46847963,14.5520373 C3.19700978,14.824733 3.04749477,15.1957092 3.05399868,15.5804385 L3.05399867,15.5804393 C3.04846287,15.9581092 3.19831993,16.3214706 3.46847962,16.5854404 C4.02468027,17.1464411 4.93044226,17.1502801 5.4912015,16.5939604 C5.49408151,16.5912004 5.49696151,16.5885604 5.49948151,16.5854404 L5.49948153,16.5854404 C5.76772169,16.3201417 5.91737265,15.9577037 5.91444295,15.5804392 L5.91444303,15.5804347 C5.92079167,15.195642 5.77110169,14.8246658 5.49947927,14.5520358 L5.49947937,14.5520359 C5.23600172,14.2746622 4.86796926,14.1209612 4.48547819,14.128555 L4.48415819,14.128915 L4.48416147,14.1289172 Z M23.8503793,10.247147 L23.8507393,10.2483471 L23.8507394,10.2483475 C23.7313655,9.37197854 23.5332031,8.50816035 23.2586606,7.66738359 L23.2586606,7.66738384 C22.9698705,6.77721952 22.53982,5.93928339 21.984981,5.18565439 L21.9849809,5.1856542 C21.6668844,4.74756463 21.2737855,4.36921263 20.82386,4.06809196 L20.82386,4.06809192 C20.3640836,3.75642437 19.8687385,3.50077485 19.3483387,3.3065715 L19.348338,3.30657125 C18.8340367,3.11554744 18.3019017,2.97649352 17.7598971,2.8914903 L17.7598973,2.89149033 C17.2495428,2.80999828 16.7311562,2.79105841 16.216215,2.83509026 L16.216215,2.83509027 C16.0267385,2.87018375 15.8694497,3.00188672 15.8016145,3.18225161 L15.8016145,3.18225165 C15.7010129,3.3558485 15.6429869,3.55081614 15.6322942,3.75117185 L15.6322942,14.5288719 L15.6322942,14.528869 C15.636405,15.070597 16.0744455,15.5088014 16.6161735,15.5131139 L17.019013,15.5131139 L17.0190129,15.5130987 C17.0166733,15.1488186 17.0887051,14.7878948 17.2306988,14.4524194 L17.2306987,14.4524195 C17.3678066,14.1244535 17.5647609,13.8248704 17.8114994,13.5689794 L17.8114996,13.5689793 C18.0576897,13.3155985 18.3490463,13.1104381 18.6705811,12.964059 L18.6705811,12.964059 C19.00803,12.8137848 19.3738851,12.7379454 19.7432629,12.7416987 L19.7432629,12.7416987 C20.1173844,12.7399887 20.4897505,12.7929067 20.8485837,12.8987787 L20.8485837,12.8987787 C21.1850576,12.9963022 21.4971165,13.1638431 21.7643043,13.3904183 L21.7643043,13.3904183 C22.0366014,13.6294271 22.2503775,13.9277728 22.389144,14.2624583 L22.3891441,14.2624586 C22.5559999,14.6743802 22.6358733,15.1163533 22.6237444,15.5606187 L23.5391064,15.5606187 L23.5391064,15.5606187 C23.6295596,15.5599187 23.7120013,15.5086186 23.7525867,15.4277785 C23.8104267,15.3260184 23.8556668,15.2174183 23.8856668,15.1046172 C23.9229869,14.9799371 23.9485469,14.8524974 23.9629469,14.7236168 C23.9767469,14.6164567 23.9846669,14.5086965 23.9864669,14.4004555 C23.9864669,13.9385745 23.990667,13.3415738 23.998587,12.6100534 L23.9985871,12.6100405 C24.0093266,11.8197763 23.9597823,11.0298449 23.8503851,10.2471159 L23.8503793,10.247147 Z M22.1445773,9.97474673 L22.1445773,9.97474673 C22.1299531,9.97940494 22.1147868,9.98214779 22.0994573,9.98290674 L22.0966973,9.97846674 C21.9632571,9.98422674 21.8060579,9.99046675 21.6285772,9.99046675 L17.5140021,9.99046675 L17.5140021,9.99046675 C17.3927218,9.98159797 17.279853,9.92518527 17.1999627,9.83350657 L17.1999627,9.83350657 C17.115618,9.76657696 17.059543,9.67036287 17.0428825,9.56398673 L17.0428825,9.5396267 L17.0428785,9.5394359 C17.0290924,8.87672107 17.0212535,8.21389608 17.0193629,7.55104062 L17.0193629,5.516982 L17.0193629,5.51698299 C17.0239395,5.34341217 17.0962045,5.17850994 17.2207224,5.05750199 L17.2207225,5.05750194 C17.3466947,4.91947717 17.526008,4.84239114 17.7128426,4.84594169 C17.7278426,4.84594169 17.8396827,4.83682168 18.0475234,4.82218166 L18.0475236,4.82218166 C18.3048559,4.80961506 18.5627953,4.82045968 18.8181635,4.85458169 L18.8181636,4.85458169 C19.1509178,4.89901667 19.4774354,4.98168293 19.7912452,5.10094292 L19.7912449,5.10094282 C20.1497523,5.23775844 20.4764293,5.44657134 20.7511265,5.71450212 L20.7511264,5.71450207 C21.2193918,6.20116357 21.5577289,6.79778692 21.735008,7.44946503 L21.7350096,7.44947039 C21.9342349,8.14923996 22.1131084,8.85464625 22.2714008,9.56479629 C22.2692408,9.58831632 22.2735608,9.61195635 22.2830408,9.63295637 C22.2925208,9.6545564 22.2966008,9.67795642 22.2950408,9.70111645 L22.2950408,9.70111647 C22.3289655,9.81821481 22.2616208,9.94065972 22.1445607,9.97471679 L22.1445773,9.97474673 Z M14.2041775,0.112539943 L10.1957041,0.112539943 C10.1957041,0.107979938 4.07954068,0.107979938 2.71969535,0.107979938 C1.39813288,0.107979938 0.627492918,1.67602083 0.506173245,1.98742119 L0.506173062,1.98742165 C0.374317283,2.32216579 0.306187438,2.67860605 0.305293062,3.03838381 L0.305293062,14.6680848 L0.30529305,14.668085 C0.289511907,14.9097189 0.379196027,15.1463372 0.551173805,15.3168053 L0.551173822,15.3168053 C0.723337695,15.4682816 0.947108658,15.5478408 1.17625502,15.5390456 L1.69153609,15.5390456 L1.69153598,15.5390442 C1.63003356,14.7580613 1.892787,13.9862096 2.41801729,13.4049613 L2.41801711,13.4049614 C2.99340841,12.9025265 3.74452256,12.6487028 4.50673908,12.6991216 C5.46097925,12.6991216 6.15998006,12.9531609 6.60746105,13.460642 L6.60746105,13.460642 C7.08146395,14.0469833 7.32013297,14.7888279 7.2769423,15.5417093 L13.3771447,15.5417093 L13.3771447,15.5417093 C13.606392,15.5457981 13.8276514,15.4573634 13.9908259,15.2962832 L13.9908258,15.2962832 C14.1618225,15.133875 14.2555644,14.9063296 14.2485871,14.670602 L14.204187,0.112546007 L14.2041775,0.112539943 Z M7.48848215,9.39755075 L7.48848215,7.47934852 L4.52663495,7.47934852 L4.52663495,5.49166573 L7.48848215,5.49166573 L7.48848215,3.71434413 L11.1385255,6.555699 L7.48848215,9.39755075 L7.48848215,9.39755075 Z" id="形状"></path>
            </g>
            <g id="运输" transform="translate(1237.000000, 199.000000)" fill="#FFFFFF" fill-rule="nonzero">
                <path d="M23.9280339,10.0512135 L23.928034,10.0512137 C23.8872124,9.93484141 23.8328384,9.82367691 23.766034,9.72001451 L21.3204321,4.59962027 L20.4264301,2.98681816 L16.8216142,2.98681816 L16.8216142,1.19521514 C16.8216142,0.745215784 16.7112141,0.430813074 16.4760135,0.237613318 C16.2804133,0.0768131544 15.9972139,1.30415669e-05 15.6204128,1.30415669e-05 L1.04638409,1.30415669e-05 C0.57838425,1.30415669e-05 -1.61887459e-05,0.618013526 -1.61887459e-05,1.02241353 L-1.61887459e-05,14.7792272 C-1.61887459e-05,15.3252283 0.299985098,15.7992274 0.739184671,16.0608275 L0.739184627,16.0608276 C1.51085959,14.463667 3.13058913,13.4510402 4.90438244,13.4568152 C6.82798562,13.4568152 8.32078876,14.4780169 9.01198488,16.1280136 L13.8180022,16.1280136 C14.5092035,14.4900129 15.9036046,13.4808176 17.8092021,13.4808176 C19.7148048,13.4808176 20.9363941,14.490018 21.627616,16.1280136 L22.8288174,16.1280136 C23.6592195,16.1280136 24.0000197,15.609614 24.0000197,14.791213 L24.0000197,10.507215 C24.0000197,10.436415 23.9940197,10.365615 23.9820197,10.2948147 L23.9280195,10.0512143 L23.9280339,10.0512135 Z M16.2204238,8.95921133 L16.2204238,4.77960178 L19.2240331,4.77960178 L20.4264334,8.96160899 L16.2204238,8.96160899 L16.2204238,8.95921133 Z M17.8764379,14.7852134 C16.1688354,14.7852134 14.7864226,16.1556148 14.7864226,17.840424 C14.7864226,19.5252255 16.1688251,20.8956346 17.8764379,20.8956346 C19.5828389,20.8956346 20.9652415,19.5252332 20.9652415,17.840424 C20.9652415,16.1556225 19.5828389,14.7852134 17.8764379,14.7852134 Z M5.00041589,14.7852134 C3.29401484,14.7852134 1.91161229,16.1556148 1.91161229,17.840424 C1.91161229,19.5252255 3.29401484,20.8956346 5.00041589,20.8956346 C6.70801834,20.8956346 8.09641246,19.5252332 8.09641246,17.840424 C8.09641246,16.1556225 6.70801061,14.7852134 5.00041589,14.7852134 Z" id="形状"></path>
            </g>
            <g id="退货-(2)" transform="translate(1237.000000, 345.000000)" fill="#FFFFFF" fill-rule="nonzero">
                <path d="M23.9972154,21.3509311 L23.9972154,3.96975462 L23.9972155,3.96974575 C24.0042658,2.51488937 22.8305868,1.32978955 21.375728,1.32273485 C21.3651067,1.32268338 21.3544852,1.32269615 21.343864,1.32277315 L20.0182633,1.32277315 L20.0182633,1.32277541 C20.0105802,0.593502682 19.4198329,0.00495355993 18.6905367,-1.28521017e-05 L5.30667741,-1.28521017e-05 L5.30667741,-1.28521017e-05 C4.57738594,0.00534154479 3.98695244,0.594205808 3.97965633,1.32348088 L2.6540462,1.32348088 L2.65404616,1.32348088 C1.19921556,1.31255017 0.0109727702,2.48306426 -2.40401744e-05,3.93789017 C-2.40401744e-05,3.94851191 -2.40401744e-05,3.95913406 -2.40401744e-05,3.96975606 L-2.40401744e-05,21.3509325 L-2.40401744e-05,21.3509353 C-0.00665970888,22.8057917 1.16733367,23.9905868 2.62219474,23.9972431 C2.63257965,23.9972906 2.64296475,23.9972768 2.65334954,23.9972015 L21.4045901,23.9972015 C22.851609,24.0572 24.057226,22.8544088 23.9972259,21.3502141 L23.9972154,21.3509311 Z M14.7115952,18.238779 L10.672653,18.238779 L10.672653,18.238779 C9.94190372,18.2556587 9.33583036,17.6769534 9.31895066,16.9462018 C9.30207102,16.2154525 9.88077631,15.6093791 10.6115279,15.5924994 C10.6319008,15.5920288 10.6522818,15.5920288 10.6726547,15.5924994 L14.6522999,15.5924994 L14.6522999,15.5924994 C15.3830492,15.6093788 15.9891226,15.0306714 16.0060023,14.2999221 C16.0228817,13.5691728 15.4441743,12.9630995 14.713425,12.9462198 C14.6930525,12.9457492 14.6726718,12.9457492 14.6522992,12.9462198 L9.28632425,12.9462198 L9.28632425,14.2697135 L5.2459758,11.622726 L9.28632425,8.97714483 L9.28632425,10.2999307 L14.6522992,10.2999307 C16.8828253,10.2999307 18.6919446,12.1041164 18.6919446,14.2697088 C18.6919446,16.434591 16.8828182,18.2387837 14.7122993,18.2387837 L14.7115952,18.238779 Z M17.3649343,4.0297547 L6.63228116,4.0297547 L6.63228121,4.0297547 C5.90133739,4.02985199 5.3086117,3.43738291 5.3086117,2.70643909 C5.3086117,1.97549527 5.90098348,1.38286802 6.6319273,1.38276957 C6.63204471,1.38276957 6.63216213,1.38276957 6.63227955,1.38276957 L17.3649327,1.38276957 L17.3649327,1.38276957 C18.0958765,1.3826723 18.6886022,1.97514136 18.6886022,2.70608518 C18.6886022,3.437029 18.0962304,4.02965625 17.3652866,4.0297547 C17.3651691,4.0297547 17.3650517,4.0297547 17.3649343,4.0297547 L17.3649343,4.0297547 Z" id="形状"></path>
            </g>
            <g id="line" transform="translate(6.000000, 476.000000)" fill-rule="nonzero">
                <polygon id="路径" fill="#FFFFFF" points="0 0 920 0 920 512 0 512"></polygon>
                <g id="编组" transform="translate(0.000000, 23.000000)">
                    <g transform="translate(24.000000, 0.000000)" fill="#000000" font-family="PingFangSC-Regular, PingFang SC" font-size="18" font-weight="normal" id="数据对比">
                        <text>
                            <tspan x="0" y="19">数据对比</tspan>
                        </text>
                    </g>
                    <g transform="translate(24.000000, 28.000000)" fill="#808080" font-family="PingFangSC-Regular, PingFang SC" font-size="12" font-weight="normal" id="订单数据对比图">
                        <text>
                            <tspan x="0" y="13.5">订单数据对比图</tspan>
                        </text>
                    </g>
                    <g transform="translate(0.000000, 66.000000)" fill="#FFFFFF" fill-opacity="0" id="路径">
                        <polygon points="0 0 920 0 920 423 0 423"></polygon>
                    </g>
                    <g transform="translate(24.000000, 70.000000)" id="路径">
                        <polygon fill-opacity="0" fill="#FFFFFF" points="0 0 800.744003 0 800.744003 395 0 395"></polygon>
                        <g transform="translate(202.000000, 0.000000)" fill-opacity="0.85" stroke="#FFFFFF">
                            <g>
                                <path d="M198.372002,197.49999 L390.884956,241.60225 C404.312558,182.98875 390.305828,121.450705 352.833065,74.4226827 C315.360301,27.3946598 258.503881,9.87499999e-06 198.372002,9.87499999e-06 L198.372002,197.49999 Z" fill="#5B8FF9"></path>
                                <path d="M198.372011,197.500002 L15.9721533,273.239959 C48.9179019,352.581163 129.374099,401.52447 214.979376,394.300511 C300.584653,387.076552 371.701137,325.342504 390.884956,241.60225 L198.372011,197.500002 Z" fill="#5AD8A6"></path>
                                <path d="M198.371993,197.500004 L41.1870111,77.9210518 C-1.39459496,133.894026 -10.9985565,208.288071 15.9721533,273.239959 L198.371993,197.500004 Z" fill="#5D7092"></path>
                                <path d="M198.371994,197.499994 L144.739179,7.42168355 C103.48602,19.0617455 67.1395208,43.8068113 41.1870111,77.9210518 L198.371994,197.499994 Z" fill="#F6BD16"></path>
                                <path d="M198.372002,197.49999 L198.372002,9.87499999e-06 C180.238456,9.87499999e-06 162.1913,2.49736307 144.739179,7.42168355 L198.372002,197.49999 Z" fill="#E8684A"></path>
                            </g>
                        </g>
                    </g>
                    <g transform="translate(283.000000, 131.000000)">
                        <g fill="#FFFFFF" font-family="Helvetica" font-size="12" font-weight="normal">
                            <text id="640">
                                <tspan x="233.846049" y="59.448451">640</tspan>
                            </text>
                            <text id="899">
                                <tspan x="141.943585" y="272.700347">899</tspan>
                            </text>
                            <text id="372">
                                <tspan x="0.288969856" y="124.642274">372</tspan>
                            </text>
                            <text id="230">
                                <tspan x="56.7742311" y="32.6623617">230</tspan>
                            </text>
                            <text id="98">
                                <tspan x="116.324037" y="11.0761445">98</tspan>
                            </text>
                        </g>
                        <g transform="translate(557.744003, 102.875000)">
                            <g>
                                <path d="M0,7 C0,9.48528137 2.01471863,11.5 4.5,11.5 C6.98528137,11.5 9,9.48528137 9,7 C9,4.51471863 6.98528137,2.5 4.5,2.5 C2.01471863,2.5 0,4.51471863 0,7" id="路径" fill-opacity="0.85" fill="#5B8FF9"></path>
                                <text id="已激活" fill="#8C8C8C" font-family="PingFangSC-Regular, PingFang SC" font-size="12" font-weight="normal">
                                    <tspan x="17" y="14.75">已激活</tspan>
                                </text>
                                <polygon id="路径" fill-opacity="0" fill="#FFFFFF" points="0 0.5 54.2559967 0.5 54.2559967 13.5 0 13.5"></polygon>
                            </g>
                            <g transform="translate(0.000000, 22.000000)">
                                <path d="M0,7.25 C0,9.73528137 2.01471863,11.75 4.5,11.75 C6.98528137,11.75 9,9.73528137 9,7.25 C9,4.76471863 6.98528137,2.75 4.5,2.75 C2.01471863,2.75 0,4.76471863 0,7.25" id="路径" fill-opacity="0.85" fill="#5AD8A6"></path>
                                <text id="未激活" fill="#8C8C8C" font-family="PingFangSC-Regular, PingFang SC" font-size="12" font-weight="normal">
                                    <tspan x="17" y="15">未激活</tspan>
                                </text>
                                <polygon id="路径" fill-opacity="0" fill="#FFFFFF" points="0 0.75 54.2559967 0.75 54.2559967 13.75 0 13.75"></polygon>
                            </g>
                            <g transform="translate(0.000000, 45.000000)">
                                <path d="M0,6.5 C0,8.98528137 2.01471863,11 4.5,11 C6.98528137,11 9,8.98528137 9,6.5 C9,4.01471863 6.98528137,2 4.5,2 C2.01471863,2 0,4.01471863 0,6.5" id="路径" fill-opacity="0.85" fill="#5D7092"></path>
                                <text id="已取消" fill="#8C8C8C" font-family="PingFangSC-Regular, PingFang SC" font-size="12" font-weight="normal">
                                    <tspan x="17" y="14.25">已取消</tspan>
                                </text>
                                <polygon id="路径" fill-opacity="0" fill="#FFFFFF" points="0 0 54.2559967 0 54.2559967 13 0 13"></polygon>
                            </g>
                            <g transform="translate(0.000000, 67.000000)">
                                <path d="M0,6.75 C0,9.23528137 2.01471863,11.25 4.5,11.25 C6.98528137,11.25 9,9.23528137 9,6.75 C9,4.26471863 6.98528137,2.25 4.5,2.25 C2.01471863,2.25 0,4.26471863 0,6.75" id="路径" fill-opacity="0.85" fill="#F6BD16"></path>
                                <text id="已退回" fill="#8C8C8C" font-family="PingFangSC-Regular, PingFang SC" font-size="12" font-weight="normal">
                                    <tspan x="17" y="14.5">已退回</tspan>
                                </text>
                                <polygon id="路径" fill-opacity="0" fill="#FFFFFF" points="0 0.25 54.2559967 0.25 54.2559967 13.25 0 13.25"></polygon>
                            </g>
                            <g transform="translate(0.000000, 89.000000)">
                                <path d="M0,7 C0,9.48528137 2.01471863,11.5 4.5,11.5 C6.98528137,11.5 9,9.48528137 9,7 C9,4.51471863 6.98528137,2.5 4.5,2.5 C2.01471863,2.5 0,4.51471863 0,7" id="路径" fill-opacity="0.85" fill="#E8684A"></path>
                                <text id="已过期" fill="#8C8C8C" font-family="PingFangSC-Regular, PingFang SC" font-size="12" font-weight="normal">
                                    <tspan x="17" y="14.75">已过期</tspan>
                                </text>
                                <polygon id="路径" fill-opacity="0" fill="#FFFFFF" points="0 0.5 54.2559967 0.5 54.2559967 13.5 0 13.5"></polygon>
                            </g>
                        </g>
                    </g>
                </g>
            </g>
            <text id="订单简报" font-family="PingFangSC-Medium, PingFang SC" font-size="22" font-weight="400" fill="#333333">
                <tspan x="56" y="110">订单简报</tspan>
            </text>
            <g id="Bar-chart" transform="translate(22.000000, 94.000000)" fill="#FF4D4F" fill-rule="nonzero">
                <path d="M17.3333334,3 L17.3333334,3 C18.2538083,3 19,3.80279912 19,4.79310294 C19,4.79310294 19,4.79310296 19,4.79310296 L19,14.2068971 L19,14.2068971 C19,15.1972009 18.2538083,16 17.3333334,16 C17.3333334,16 17.3333334,16 17.3333334,16 L15.6666667,16 L15.6666666,16 C14.7461917,16 14,15.1972009 14,14.2068971 C14,14.2068971 14,14.2068971 14,14.2068971 L14,4.79310296 L14,4.79310321 C14,3.80279939 14.7461917,3 15.6666666,3 C15.6666666,3 15.6666667,3 15.6666667,3 L17.3333333,3 L17.3333334,3 Z M10.3333334,0 L10.3333334,0 C11.2538083,0 12,0.795937915 12,1.77777801 L12,14.222222 L12,14.222222 C12,15.2040621 11.2538083,16 10.3333334,16 C10.3333334,16 10.3333334,16 10.3333334,16 L8.66666672,16 L8.66666664,16 C7.74619169,16 7,15.2040621 7,14.222222 C7,14.222222 7,14.222222 7,14.222222 L7,1.77777801 L7,1.77777828 C7,0.795938183 7.74619169,0 8.66666664,0 L10.3333333,0 L10.3333334,0 Z M3.33333343,7 L3.33333336,7 C4.25380831,7 5,7.75404579 5,8.68420896 L5,13.3157913 L5,13.3157913 C5,14.2459545 4.25380831,15 3.33333336,15 C3.33333336,15 3.33333336,15 3.33333336,15 L1.66666672,15 L1.66666664,15 C0.746191687,15 0,14.2459545 0,13.3157913 C0,13.3157913 0,13.3157913 0,13.3157913 L0,8.68420896 L0,8.68420871 C0,7.75404553 0.746191687,7 1.66666664,7 L3.33333328,7 L3.33333343,7 Z M17.5,4 L15.5,4 L15.5,4 C15.2465119,4 15.0331578,4.16500306 15.0035,4.38391238 L15,4.43478194 L15,13.565217 L15,13.5651597 C15,13.7855843 15.1896922,13.9711319 15.4414339,13.9969498 L15.5,14 L17.5,14 L17.5,14 C17.7534881,14 17.9668422,13.8349969 17.9965,13.6160876 L18,13.5652181 L18,4.43478299 L18,4.43484034 C18,4.21441574 17.810308,4.02886818 17.5585661,4.00305024 L17.5,4 L17.5,4 Z M10.5,1 L8.5,1 L8.5,1 C8.24651186,1 8.03315783,1.16445314 8.0035,1.38263286 L8,1.43333289 L8,13.5666661 L8,13.566609 C8,13.7862989 8.18969222,13.9712281 8.44143386,13.99696 L8.5,14 L10.5,14 L10.5,14 C10.7534881,14 10.9668422,13.8355469 10.9965,13.6173671 L11,13.5666671 L11,1.43333394 L11,1.43339109 C11,1.21370113 10.810308,1.02877197 10.5585661,1.00304008 L10.5,1 L10.5,1 Z M3.5,8 L1.5,8 L1.5,8 C1.24651186,8 1.03315783,8.17515689 1.0035,8.40753727 L1,8.46153721 L1,13.5384617 L1,13.5384009 C1,13.7723898 1.18969222,13.9693554 1.44143386,13.9967621 L1.5,14 L3.5,14 L3.5,14 C3.75348814,14 3.96684217,13.8248431 3.9965,13.5924627 L4,13.5384628 L4,8.46153832 L4,8.4615992 C4,8.22761028 3.81030801,8.03064465 3.55856614,8.00323795 L3.5,8 L3.5,8 Z" id="形状"></path>
            </g>
            <rect id="矩形" fill="#FFFFFF" x="26" y="500" width="131" height="55"></rect>
            <text id="订单简报备份" font-family="PingFangSC-Medium, PingFang SC" font-size="22" font-weight="400" fill="#333333">
                <tspan x="51" y="509">订单简报</tspan>
            </text>
            <text id="数据汇总" font-family="PingFangSC-Medium, PingFang SC" font-size="22" font-weight="400" fill="#333333">
                <tspan x="1012" y="509">数据汇总</tspan>
            </text>
            <g id="Pie-chart" transform="translate(20.000000, 494.000000)" fill="#36CFC9" fill-rule="nonzero">
                <path d="M10.0000122,0.396827095 C15.3035898,0.396827095 19.6031911,4.69642845 19.6031911,10.0000061 C19.6031911,15.3035837 15.3035898,19.603185 10.0000122,19.603185 C4.69643459,19.603185 0.396833233,15.3035837 0.396833233,10.0000061 C0.396833233,4.69642845 4.69643459,0.396827095 10.0000122,0.396827095 Z M1.70634565,10.0000061 C1.70634565,14.580296 5.41974272,18.2936597 10.0000122,18.2936597 C12.0546574,18.2936597 13.9347061,17.5463565 15.3834708,16.309293 L9.57441646,10.5002386 L9.57441651,10.5002386 C9.31081725,10.2365064 9.15276981,9.88547993 9.1300516,9.51329237 L9.12699602,9.42031607 L9.12699602,1.75173572 C4.95658752,2.18824348 1.70634565,5.71435938 1.70634565,10.0000061 L1.70634565,10.0000061 Z M18.2823443,10.4365138 L11.3623687,10.4365138 L16.3093257,15.3834711 L16.3093255,15.3834711 C17.4952971,13.9976455 18.1890673,12.2581457 18.2823443,10.4365138 L18.2823443,10.4365138 Z M10.4365343,1.71769415 L10.4365343,9.12698848 L18.2487327,9.12698848 C17.8270656,5.09976839 14.5227035,1.92895741 10.4365343,1.71812383 L10.4365343,1.71769415 Z" id="形状"></path>
            </g>
            <text id="对于数据收集统计汇总" font-family="PingFangSC-Regular, PingFang SC" font-size="17" font-weight="normal" fill="#8F8F8F">
                <tspan x="981" y="542">对于数据收集统计汇总</tspan>
            </text>
            <text id="订单汇总" font-family="PingFangSC-Regular, PingFang SC" font-size="19" font-weight="normal" fill="#333333">
                <tspan x="1008" y="588">订单汇总</tspan>
            </text>
            <text id="跟进汇总" font-family="PingFangSC-Regular, PingFang SC" font-size="19" font-weight="normal" fill="#333333">
                <tspan x="1008" y="671">跟进汇总</tspan>
            </text>
            <text id="新增48个订单，已审核5个" font-family="PingFangSC-Regular, PingFang SC" font-size="19" font-weight="normal" fill="#333333">
                <tspan x="1008" y="617">新增</tspan>
                <tspan x="1046" y="617" font-family="PingFangSC-Semibold, PingFang SC" font-size="22" font-weight="500">48</tspan>
                <tspan x="1072.4" y="617">个订单，已审核</tspan>
                <tspan x="1205.4" y="617" font-family="PingFangSC-Semibold, PingFang SC" font-size="22" font-weight="500">5</tspan>
                <tspan x="1218.6" y="617">个</tspan>
            </text>
            <text id="跟进订单8个订单，新增订单中未跟进40个" font-family="PingFangSC-Regular, PingFang SC" font-size="19" font-weight="normal" fill="#333333">
                <tspan x="1008" y="700">跟进订单</tspan>
                <tspan x="1084" y="700" font-family="PingFangSC-Semibold, PingFang SC" font-size="22" font-weight="500">8</tspan>
                <tspan x="1097.2" y="700">个订单，新增订单中未跟进</tspan>
                <tspan x="1325.2" y="700" font-family="PingFangSC-Semibold, PingFang SC" font-size="22" font-weight="500">40</tspan>
                <tspan x="1351.6" y="700">个</tspan>
            </text>
            <line x1="981.5" y1="637.5" x2="1570.5" y2="637.5" id="直线-3" stroke="#EBEBED" stroke-linecap="square" stroke-dasharray="4,4"></line>
            <g id="编组-16" transform="translate(55.000000, 345.000000)" fill="#FFFFFF" fill-rule="nonzero">
                <path d="M21.0815566,16.972867 L17.6878964,20.3860272 L17.6878964,20.3860272 C17.5318761,20.5407376 17.2803038,20.5407376 17.1242825,20.3860272 L15.4304454,18.6712041 L15.4304454,18.6712041 C15.2648808,18.5247585 15.2493818,18.271824 15.3958274,18.1062589 C15.5422731,17.9406944 15.7952076,17.9251954 15.9607726,18.071641 C15.9719464,18.0815245 15.9825589,18.0920249 15.9925602,18.1030932 L17.4075892,19.5181222 L20.51346,16.4092514 L20.51346,16.4092514 C20.6656329,16.248935 20.918955,16.2423333 21.0792724,16.3945063 C21.2395889,16.5466792 21.2461905,16.8000013 21.0940175,16.9603187 C21.0899614,16.9645919 21.0858113,16.968775 21.0815705,16.972865 M18.3879189,12.790743 L18.3879187,12.790743 C15.2971182,12.790743 12.7915059,15.2963318 12.7915059,18.3871557 C12.7915059,21.4779562 15.2970948,23.9835685 18.3879187,23.9835685 L18.3879185,23.9835685 C21.4787189,23.9835685 23.9843312,21.4779796 23.9843312,18.3871557 C23.9843312,15.2963553 21.4787424,12.790743 18.3879185,12.790743" id="形状"></path>
                <path d="M12.1266868,19.1868461 L1.47648694,19.1868461 L1.47648687,19.1868461 C0.661046082,19.1868461 7.10542736e-15,18.5258001 7.10542736e-15,17.7103593 C7.10542736e-15,17.7103593 7.10542736e-15,17.7103593 7.10542736e-15,17.7103593 L7.10542736e-15,7.01070618 C7.10542736e-15,6.8068461 0.164886754,6.64195888 0.368747304,6.64195888 L18.8180891,6.64195888 C19.0219492,6.64195888 19.1868364,6.80684563 19.1868364,7.01070618 L19.1868364,12.0052667 C19.0369393,11.9962729 18.8870423,11.9917759 18.7371452,11.9917759 C15.0121956,11.9917759 11.991778,14.6749275 11.991778,17.9876579 C11.991778,18.3983772 12.0382462,18.8001011 12.1266854,19.1868461 L12.1266868,19.1868461 Z M10.6996672,5.16546263 L10.6996672,5.16546263 C10.4960138,5.16546264 10.3309199,5.00036916 10.3309199,4.79671533 C10.3309199,4.79671532 10.3309199,4.79671531 10.3309199,4.7967153 L10.3309199,0.368757024 C10.3309199,0.164896943 10.4958067,9.72030706e-06 10.6996672,9.72030706e-06 L14.7379063,9.72030706e-06 C15.2145787,9.72030706e-06 15.6612722,0.230851317 15.9370827,0.61758622 L18.7701407,4.58237208 L18.7701407,4.58237209 C18.8893528,4.74748759 18.8521408,4.97798114 18.6870256,5.09719378 C18.6239657,5.14272258 18.5481242,5.16714613 18.4703466,5.16697268 L10.6996813,5.16697268 L10.6996672,5.16546263 Z M0.716522773,5.16546263 L0.716522777,5.16546263 C0.512869415,5.16532407 0.347887973,5.00011814 0.348026168,4.79646454 C0.348026168,4.71968508 0.372095892,4.64483687 0.416727975,4.5823625 L3.24828596,0.617576634 L3.24828605,0.6175765 C3.52543481,0.230060424 3.97253846,8.90626036e-05 4.44896245,-6.25277607e-14 L8.48720153,-6.25277607e-14 C8.68956254,-6.25277607e-14 8.85594883,0.164886754 8.85594883,0.368747304 L8.85594883,4.79670558 C8.85594883,5.00056566 8.69106207,5.16546263 8.48720153,5.16546263 L0.716536233,5.16546263 L0.716522773,5.16546263 Z M2.95298788,12.5463853 L2.95298784,12.5463853 C2.54526628,12.5463853 2.21474558,12.8769083 2.21474558,13.2846275 C2.21474558,13.6923491 2.54526862,14.0228698 2.95298784,14.0228698 L5.16696933,14.0228698 L5.16696929,14.0228698 C5.57469086,14.0228698 5.90521156,13.6923468 5.90521156,13.2846275 C5.90521156,12.876906 5.57468852,12.5463853 5.16696929,12.5463853 L2.95298781,12.5463853 L2.95298788,12.5463853 Z M7.38094615,16.9743436 L7.38094612,16.9743436 C7.78866769,16.9743436 8.11918839,16.6438205 8.11918839,16.2361013 C8.11918839,15.8283797 7.78866535,15.497859 7.38094612,15.497859 L2.95298784,15.497859 L2.95298781,15.497859 C2.54526624,15.497859 2.21474555,15.8283821 2.21474555,16.2361013 C2.21474555,16.6438229 2.54526859,16.9743436 2.95298781,16.9743436 L7.38094609,16.9743436 L7.38094615,16.9743436 Z" id="形状"></path>
            </g>
            <g id="跟进" transform="translate(449.000000, 346.000000)" fill="#FFFFFF" fill-rule="nonzero">
                <path d="M17.3427546,-5.1360502e-06 L6.65722407,-5.1360502e-06 L6.65722405,-5.1360502e-06 C4.90431397,-0.00525252324 3.21758998,0.669045522 1.95137436,1.88125561 L1.95137427,1.88125571 C0.710246706,3.06894458 0.00577337007,4.71049882 -9.69103412e-06,6.42832543 L-9.69103412e-06,14.1950868 C-9.69103412e-06,17.743394 2.97968388,20.6215541 6.65721746,20.6215541 L14.726762,20.6215541 L15.6036844,21.4707835 C16.0024538,21.8584758 16.530454,22.098476 17.093529,22.1483211 L17.318759,22.1538596 C17.9390675,22.1649365 18.4135273,21.9803212 19.0818354,21.4707834 L21.3175197,19.3071007 C23.2596719,17.2560244 23.9556816,16.155711 23.9999903,14.1950954 L23.9999903,6.42833395 C23.9999903,2.87818781 21.0184578,-5.1360502e-06 17.3427632,-5.1360502e-06 L17.3427546,-5.1360502e-06 Z M16.7815251,10.7944889 L16.7815251,10.7944888 C16.7388217,11.006373 16.6325638,11.200214 16.4769094,11.350182 L12.2787489,15.4080172 L12.2787489,15.4080173 C11.835952,15.7853182 11.179422,15.7661712 10.7593637,15.3637095 L10.7593636,15.3637094 C10.3436755,14.9693665 10.3230854,14.3138231 10.7132099,13.8941715 L13.0928973,11.5957022 L7.72243914,11.5957022 L7.72243919,11.5957022 C7.21543154,11.6015875 6.7755511,11.2468947 6.67382504,10.7501637 L6.67382502,10.7501636 C6.59095698,10.3918713 6.70323599,10.0164375 6.96920898,9.76247173 L11.1673695,5.70463643 L11.1673696,5.70463638 C11.6057961,5.2873473 12.2944823,5.2873473 12.7329067,5.70463648 L12.736599,5.70463648 L12.736599,5.70463647 C13.1546367,6.10100441 13.1722022,6.76121017 12.7758334,7.17924782 C12.7631055,7.19267155 12.7500227,7.20575428 12.736599,7.2184822 L10.3402958,9.53170665 L15.6018429,9.53170665 L15.6018429,9.53170665 C15.7123143,9.52212622 15.8235875,9.52834256 15.9323039,9.55016813 L15.9323039,9.55016815 C16.2158189,9.59973004 16.4677466,9.76059217 16.6319959,9.9969372 L16.6319959,9.99693719 C16.7917997,10.2299169 16.8460834,10.5194291 16.7815345,10.7944761 L16.7815251,10.7944889 Z" id="形状"></path>
            </g>
            <g id="已完成" transform="translate(843.000000, 345.000000)" fill="#FFFFFF" fill-rule="nonzero">
                <path d="M17.28,8.88 C18,8.88 18.72,9 19.44,9.12 L19.44,1.8 C19.32,0.84 18.6,4.88498699e-16 17.64,4.88498699e-16 L1.8,4.88498699e-16 C0.84,4.88498699e-16 -1.4654961e-15,0.84 -1.4654961e-15,1.8 L-1.4654961e-15,20.28 C-1.4654961e-15,21.24 0.84,22.08 1.8,22.08 L10.44,22.08 C9.48,20.64 8.88,18.96 8.88,17.28 C8.88,12.6 12.6,8.88 17.28,8.88 Z M4.476,3.6 L14.952,3.6 C15.444,3.6 15.828,3.996 15.828,4.476 C15.828,4.968 15.432,5.352 14.952,5.352 L4.476,5.352 C3.984,5.352 3.6,4.956 3.6,4.476 C3.6,3.996 3.996,3.6 4.476,3.6 Z M6.204,15.876 L4.476,15.876 C3.984,15.876 3.6,15.48 3.6,15 C3.6,14.52 3.996,14.124 4.476,14.124 L6.192,14.124 C6.684,14.124 7.068,14.52 7.068,15 C7.068,15.48 6.684,15.876 6.204,15.876 Z M7.884,10.644 L4.476,10.644 C3.984,10.644 3.6,10.248 3.6,9.768 C3.6,9.276 3.996,8.892 4.476,8.892 L7.872,8.892 C8.364,8.892 8.748,9.288 8.748,9.768 C8.76,10.248 8.364,10.644 7.884,10.644 Z M17.4,10.8 C13.8,10.8 10.8,13.8 10.8,17.4 C10.8,21 13.8,24 17.4,24 C21,24 24,21 24,17.4 C24,13.8 21,10.8 17.4,10.8 L17.4,10.8 Z M21.324,15.972 L17.22,20.076 C16.872,20.424 16.32,20.424 15.972,20.076 L15.96,20.064 L15.948,20.052 L13.464,17.568 C13.116,17.22 13.116,16.668 13.464,16.32 C13.812,15.972 14.364,15.972 14.712,16.32 L16.596,18.204 L20.076,14.724 C20.424,14.376 20.976,14.376 21.324,14.724 C21.672,15.072 21.672,15.624 21.324,15.972 L21.324,15.972 Z" id="形状"></path>
            </g>
            <g id="待审核" transform="translate(55.000000, 199.000000)" fill="#FFFFFF" fill-rule="nonzero">
                <path d="M14.3586505,16.3769611 L14.6168614,16.3769611 L15.636967,15.1333807 L15.6369671,15.1333808 C14.2113763,13.6831703 14.2313337,11.3518641 15.6815432,9.926295 C16.0780213,9.53654718 16.5576128,9.2416419 17.084338,9.06370222 L17.0843382,9.06370215 C17.5597341,8.9033586 18.0631503,8.84304316 18.5629706,8.88654405 L18.5629706,1.79791326 C18.5629706,0.884333254 17.8219162,0.140962617 16.9071801,0.140962617 L2.07683799,0.140962617 C1.16209917,0.13980609 0.42104749,0.883174453 0.42104749,1.79675446 L0.42104749,19.6769948 C0.42104749,20.5905749 1.16210189,21.3339441 2.07683799,21.3339441 L12.0347353,21.3339441 C12.0567353,21.3339441 12.0787352,21.3293125 12.1018933,21.3212073 L12.1018933,21.3212072 C11.8361162,20.8979871 11.6952383,20.4083246 11.6954717,19.9085749 L11.6954717,19.0459414 L11.6954717,19.0459855 C11.6967161,17.5747482 12.8873593,16.3814793 14.3585884,16.3769907 L14.3586505,16.3769611 Z M4.4354901,4.45062234 L8.65832807,4.45062234 L8.6583281,4.45062234 C9.11524294,4.46771921 9.47178447,4.85198259 9.45468741,5.30889472 C9.43848795,5.74182483 9.09125549,6.08905525 8.65832538,6.10525404 L4.43548741,6.10525404 L4.43548745,6.10525404 C3.97825238,6.10517128 3.60765869,5.73444324 3.60774281,5.27720817 C3.60782556,4.82008979 3.97837179,4.44954496 4.43548745,4.44946354 L4.4354901,4.45062234 Z M4.4354901,9.33926865 L12.4678243,9.33926865 L12.4678243,9.33926865 C12.9250594,9.33926865 13.2957209,9.70993019 13.2957209,10.1671653 C13.2957209,10.6244003 12.9250594,10.9950619 12.4678243,10.9950619 L4.43549014,10.9950619 L4.43549012,10.9950619 C3.97825505,10.9950619 3.60759352,10.6244003 3.60759352,10.1671653 C3.60759352,9.70993019 3.97825505,9.33926865 4.43549012,9.33926865 L4.4354901,9.33926865 Z M11.2300243,15.883702 L4.4354901,15.883702 L4.43549014,15.883702 C3.97825506,15.8836146 3.60774549,15.5128865 3.60774549,15.0556515 C3.60774549,14.5985331 3.97837447,14.2279882 4.43549014,14.2279068 L11.223077,14.2279068 C11.6792889,14.2279068 12.0498826,14.5984327 12.0498826,15.0558034 L12.0498826,15.0558041 C12.0555717,15.5072452 11.6942719,15.8778796 11.2428309,15.8836356 C11.2385622,15.883702 11.2342931,15.883702 11.2300241,15.883702 L11.2300243,15.883702 Z M22.1397122,17.6205414 L21.2944471,17.6205414 L19.0157076,14.8554856 L19.0157076,14.8554856 C20.2876121,14.4267483 20.9731337,13.0500063 20.5487629,11.7766309 L20.5487629,11.7766307 C20.1210976,10.5062676 18.7460381,9.82158469 17.4745488,10.245893 L17.4745488,10.245893 C16.2027881,10.6741581 15.5168215,12.0502298 15.9403374,13.3235808 L15.9403373,13.3235805 C16.1837009,14.0472583 16.7512372,14.6156542 17.4745487,14.8601095 L15.1992829,17.629806 L14.3540178,17.629806 C13.5678055,17.629806 12.9355942,18.2666498 12.9355942,19.0505445 L12.9355942,19.9097043 C12.9355942,20.6970727 13.572438,21.329284 14.3540178,21.329284 L22.1373863,21.329284 C22.9189661,21.329284 23.5569703,20.6924403 23.5569703,19.9097043 L23.5569703,19.0459147 L23.5569703,19.0459054 C23.5588816,18.2612562 22.9243504,17.6236173 22.1397012,17.6217014 C22.1396983,17.6217014 22.1396955,17.6217014 22.1396927,17.6217013 L22.1397122,17.6205414 Z" id="形状"></path>
            </g>
            <g id="life-number" transform="translate(983.000000, 494.000000)" fill="#40A9FF" fill-rule="nonzero">
                <path d="M18.1624317,17.7411256 L18.1624317,17.7407939 C18.1624317,18.7792793 17.3205514,19.6211373 16.282066,19.6211373 C16.1338036,19.6211373 15.9860617,19.603602 15.8419179,19.5688969 L9.45157591,18.0293645 L9.45157592,18.0293645 C9.30667388,17.9944103 9.15553851,17.9944103 9.0106345,18.0293644 L2.619962,19.5688175 L2.61996201,19.5688175 C1.61037149,19.8120826 0.594730088,19.1908529 0.351473795,18.1812624 C0.316743326,18.037125 0.299155866,17.8893853 0.299155866,17.7411231 L0.299155866,3.20513062 L0.299155866,3.20513104 C0.299155866,1.64740407 1.56194279,0.384614939 3.11967197,0.384614939 L15.3419158,0.384614939 L15.3419156,0.384614939 C16.8996426,0.384614939 18.1624317,1.64740187 18.1624317,3.20513104 L18.1624317,17.7411235 L18.1624317,17.7411256 Z M16.7522644,6.0256368 L1.70939138,6.0256368 L1.70939138,17.7411256 L1.70939138,17.7412318 C1.70939138,18.0008537 1.91985609,18.2113171 2.17947667,18.2113171 C2.19836668,18.2113171 2.21723963,18.2101785 2.23599254,18.2079075 L2.28958234,18.1980357 L8.68040909,16.6580339 L8.680409,16.6580339 C8.99653597,16.5820148 9.32499608,16.5724107 9.6450255,16.6298287 L9.78135052,16.6580339 L16.1721773,18.1980357 L16.1721773,18.1980357 C16.4246046,18.2587312 16.6784401,18.1033023 16.7391363,17.8508764 C16.7435121,17.8326776 16.7467972,17.8142337 16.7489738,17.7956432 L16.7522644,17.7411132 L16.7522644,6.0256368 L16.7522644,6.0256368 Z M15.3418932,1.79487391 L3.11964945,1.79487391 L3.11964949,1.79487391 C2.37289141,1.79483345 1.75555095,2.37692603 1.7117426,3.12239725 L1.70939219,3.20513247 L1.70939219,4.61539052 L16.7521521,4.61539052 L16.7521521,3.20513247 L16.7521521,3.20505392 C16.7521521,2.45829583 16.1700262,1.84098843 15.4245506,1.79721974 L15.3418938,1.79487391 L15.3418932,1.79487391 Z" id="形状"></path>
            </g>
            <g id="编组-17">
                <rect id="矩形" stroke="#DAD9DC" fill="#FFFFFF" x="0" y="0" width="179" height="47" rx="2"></rect>
                <circle id="椭圆形" fill="#52B7B4" cx="30.5" cy="23.5" r="18.5"></circle>
                <g id="团队" transform="translate(20.000000, 16.000000)" fill="#FFFFFF" fill-rule="nonzero">
                    <path d="M12.4256016,8.28634184 C14.4988462,6.94571528 15.093964,4.17852456 13.7533375,2.10527996 C12.4127109,0.03203536 9.64766864,-0.56308252 7.5722756,0.77754404 C5.49688256,2.1181706 4.90391312,4.88536132 6.24453968,6.95860592 C6.58829008,7.49141904 7.04161092,7.94259144 7.5722756,8.28634184 C7.7441508,8.40020916 7.79141648,8.63009224 7.67754916,8.80411588 C7.6367288,8.86642064 7.57872092,8.91583476 7.50997084,8.94376448 C5.44317156,9.7988436 3.95645108,11.6486504 3.56758344,13.8508014 C3.48164584,14.3599817 3.8232478,14.8412323 4.33242808,14.9271699 C4.38613908,14.9357636 4.43985008,14.9400688 4.49356108,14.9400688 L15.5107614,14.9400688 C16.026387,14.942209 16.4453328,14.5254116 16.4474812,14.009786 C16.4474812,13.956075 16.4431844,13.902364 16.4345906,13.8508014 C16.0435745,11.6507989 14.556854,9.80099204 12.4922032,8.94806136 C12.300992,8.87071752 12.2107576,8.65157664 12.2881014,8.46251392 C12.3160311,8.3916154 12.3675937,8.33145908 12.4320469,8.29063872 L12.4256016,8.28634184 Z M19.6164302,11.7023614 C19.3586174,10.2457191 18.3724835,9.02110832 17.0060756,8.4560686 C16.8793177,8.40450604 16.8191614,8.262709 16.8707239,8.13595104 C16.8900599,8.08868536 16.9222865,8.047865 16.9674037,8.01993528 C18.3402569,7.13692644 18.7398667,5.308604 17.8568579,3.93575084 L17.8568579,3.93575081 C17.3422721,3.13537742 16.473892,2.63162195 15.523652,2.58223361 C15.4011909,2.57578829 15.2765814,2.57793673 15.1541203,2.58653049 C15.9297072,4.63184537 15.4183785,6.93926993 13.8543141,8.46681077 C15.3711128,9.36485869 16.5291219,10.7634931 17.1242398,12.4221013 L19.0019764,12.4221013 C19.3435783,12.4242373 19.6228755,12.1492369 19.625024,11.807635 C19.625024,11.7732599 19.6228755,11.7367365 19.6164302,11.7023614 L19.6164302,11.7023614 Z M6.14571144,8.47110768 C4.585944,6.93926996 4.07461528,4.6318454 4.8437568,2.58653052 L4.800788,2.58438208 C3.17012204,2.49199916 1.77363604,3.73809436 1.68340156,5.36876032 C1.62324524,6.43223812 2.14101928,7.44845024 3.03691876,8.02423216 C3.15078608,8.09727912 3.18301268,8.24981836 3.10996572,8.36368568 C3.082036,8.40665448 3.04336408,8.43888108 2.9960984,8.45821704 C1.62754212,9.02325676 0.6435566,10.2478676 0.3857438,11.7045099 C0.32988436,12.041815 0.55547056,12.3597841 0.89277564,12.417792 C0.92715068,12.4242373 0.96367416,12.4263857 0.9980492,12.4263857 L2.8779342,12.4263857 C3.47305208,10.7656416 4.6289128,9.3691556 6.14571144,8.47110768 Z" id="形状"></path>
                </g>
                <g id="下-(1)" transform="translate(154.000000, 20.000000)" fill="#222022" fill-rule="nonzero">
                    <polygon id="路径" points="12 0 6 6.46153846 0 0"></polygon>
                </g>
                <text id="本人及下属" font-family="PingFangSC-Regular, PingFang SC" font-size="16" font-weight="normal" fill="#333333">
                    <tspan x="62" y="26">本人及下属</tspan>
                </text>
            </g>
            <g id="编组-18" transform="translate(207.000000, 0.000000)">
                <g id="编组-17备份">
                    <rect id="矩形" stroke="#DAD9DC" fill="#FFFFFF" x="0" y="0" width="252" height="47" rx="2"></rect>
                    <text id="今日" font-family="PingFangSC-Regular, PingFang SC" font-size="16" font-weight="normal" fill="#333333">
                        <tspan x="12" y="26">今日</tspan>
                    </text>
                </g>
                <g id="down" transform="translate(226.000000, 20.000000)" fill="#B9B8BB" fill-rule="nonzero">
                    <path d="M0.244395671,1.30292209 L5.69316065,6.75168706 L5.69316068,6.7516871 C5.85132341,6.90991631 6.10382119,6.92207151 6.27645128,6.77976603 L6.30742505,6.7516871 L11.7559051,1.30292212 L11.7559051,1.30292212 C11.7776143,1.28118877 11.7897736,1.25171955 11.7897736,1.22100102 L11.7897736,0.320736361 L11.7897736,0.320734622 C11.7897736,0.256785785 11.7380222,0.204855604 11.6740734,0.204855604 C11.6433102,0.204855604 11.6138021,0.217051107 11.5920615,0.238816369 L6.00029185,5.83030108 L0.408237233,0.238816369 L0.40823724,0.238816376 C0.363043742,0.193572536 0.289729923,0.193531693 0.244485405,0.238725179 C0.222720441,0.26046599 0.210525859,0.289974293 0.210525859,0.320737466 L0.210525859,1.22100212 L0.210525859,1.22100377 C0.210525859,1.2517223 0.222685974,1.28119138 0.244395576,1.30292446 L0.244395671,1.30292209 Z" id="路径"></path>
                </g>
            </g>
            <g id="编组-19" transform="translate(1534.000000, 3.000000)">
                <g id="编组-17备份" fill="#FFFFFF" stroke="#DAD9DC">
                    <rect id="矩形" x="0" y="0" width="56" height="44" rx="2"></rect>
                </g>
                <g id="设-置" transform="translate(19.000000, 13.000000)" fill="#565558" fill-rule="nonzero">
                    <path d="M16.1352258,9.00001047 C16.1352258,7.98660929 16.771226,7.12800829 17.6628282,6.7860079 L17.6628282,6.78600778 C17.453207,5.96175448 17.1262676,5.17188579 16.6920276,4.44060857 L16.6920277,4.44060854 C15.4985261,4.97640623 14.0966497,4.44323213 13.5608502,3.24972961 C13.2836868,2.6323412 13.2838221,1.92588608 13.5612221,1.30861017 L13.5612222,1.30861027 C12.8291769,0.874335155 12.0387703,0.54701954 11.2140125,0.336609139 L11.2140125,0.336609139 C10.8632318,1.25498643 9.9830958,1.86249417 9.00000989,1.86481097 L9.00000977,1.86481097 C8.01675511,1.86361348 7.13614628,1.256013 6.7860072,0.337208609 C5.96160624,0.547209439 5.17200473,0.874208648 4.44060798,1.30800915 L4.44060794,1.30800906 C4.84274318,2.2051853 4.64966483,3.25744297 3.95520679,3.95341448 L3.95520681,3.95341447 C3.25918256,4.6471184 2.2079286,4.84077155 1.31039904,4.44061562 L1.31039939,4.44061503 C0.874626622,5.17162506 0.546836397,5.96179961 0.337197602,6.7866119 L0.337197602,6.78661187 C1.25513363,7.13750857 1.86233024,8.01730002 1.86479997,9.00001679 C1.86479997,10.013418 1.22879981,10.872019 0.337197602,11.2140194 C0.547198432,12.0384203 0.874197641,12.8280218 1.30799815,13.5594186 L1.30799814,13.5594186 C2.50149972,13.0236209 3.90337616,13.5567951 4.43917561,14.7502975 C4.71633902,15.3676859 4.71620367,16.074141 4.43880368,16.691417 L4.43880325,16.6914167 C5.17088203,17.1254826 5.96128861,17.4525961 6.78601301,17.6628186 L6.78601293,17.6628186 C7.13698873,16.7446787 8.01708077,16.1374381 9.0000155,16.1352163 C10.0134167,16.1352163 10.8720177,16.7712164 11.2140181,17.6628186 C12.038419,17.4528178 12.8280205,17.1258186 13.5594173,16.6920181 L13.5594174,16.6920183 C13.1572821,15.794842 13.3503605,14.7425843 14.0448185,14.0466128 L14.0448184,14.046613 C14.7408426,13.3529091 15.7920966,13.1592559 16.6896261,13.5594118 L16.6896259,13.5594122 C17.1253987,12.8284022 17.4531889,12.0382276 17.6628282,11.2134153 L17.6628282,11.2134153 C16.744229,10.8633624 16.136672,9.98304711 16.1352271,9.00001042 L16.1352258,9.00001047 Z M9.00001047,11.3784214 L9.00001049,11.3784214 C7.68659256,11.3780902 6.62193351,10.3134372 6.62159945,9.00001047 L6.62159945,8.99941088 C6.62159945,7.6855236 7.68671553,6.62040225 9.00060807,6.62040225 C10.3144953,6.62040225 11.3796167,7.68551833 11.3796167,8.99941088 C11.3796167,10.3132981 10.3145006,11.3784214 9.00060807,11.3784214 C9.00020811,11.3784214 8.99980815,11.3784214 8.99940818,11.3784214 L9.00001047,11.3784214 Z" id="形状"></path>
                </g>
            </g>
        </g>
    </g>
</svg>