<?xml version="1.0" encoding="UTF-8"?>
<svg width="139px" height="111px" viewBox="0 0 139 111" version="1.1" xmlns="http://www.w3.org/2000/svg" xmlns:xlink="http://www.w3.org/1999/xlink">
    <title>gdblogo备份 2</title>
    <defs>
        <radialGradient cx="17.4449093%" cy="15.290051%" fx="17.4449093%" fy="15.290051%" r="106.465676%" id="radialGradient-1">
            <stop stop-color="#61E4FF" offset="0%"></stop>
            <stop stop-color="#32C5FF" offset="100%"></stop>
        </radialGradient>
        <radialGradient cx="63.013335%" cy="0%" fx="63.013335%" fy="0%" r="149.248714%" gradientTransform="translate(0.630133,0.000000),scale(1.000000,0.739130),rotate(114.973784),translate(-0.630133,-0.000000)" id="radialGradient-2">
            <stop stop-color="#35C3FF" offset="0%"></stop>
            <stop stop-color="#1890FF" offset="100%"></stop>
        </radialGradient>
        <radialGradient cx="9.50841765%" cy="100%" fx="9.50841765%" fy="100%" r="147.436228%" gradientTransform="translate(0.095084,1.000000),scale(0.666667,1.000000),rotate(-35.180379),translate(-0.095084,-1.000000)" id="radialGradient-3">
            <stop stop-color="#00EADA" offset="0%"></stop>
            <stop stop-color="#00D1B3" offset="100%"></stop>
        </radialGradient>
        <radialGradient cx="0%" cy="0%" fx="0%" fy="0%" r="164.252488%" gradientTransform="translate(0.000000,0.000000),scale(1.000000,0.767442),rotate(52.495858),translate(-0.000000,-0.000000)" id="radialGradient-4">
            <stop stop-color="#5EDEB0" offset="0%"></stop>
            <stop stop-color="#30BA78" offset="100%"></stop>
        </radialGradient>
        <radialGradient cx="0%" cy="0%" fx="0%" fy="0%" r="163.352465%" gradientTransform="translate(0.000000,0.000000),scale(1.000000,0.774194),rotate(52.253195),translate(-0.000000,-0.000000)" id="radialGradient-5">
            <stop stop-color="#5EDEB0" offset="0%"></stop>
            <stop stop-color="#30BA78" offset="100%"></stop>
        </radialGradient>
    </defs>
    <g id="gdblogo备份-2" stroke="none" stroke-width="1" fill="none" fill-rule="evenodd">
        <g id="编组-2">
            <circle id="椭圆形备份-2" fill="url(#radialGradient-1)" cx="25" cy="86" r="25"></circle>
            <path d="M60.7664031,106.309106 C85.8338948,96.3761202 93,71.3898243 93,52.7501379 C93,34.1104514 77.8650843,19 59.1952197,19 C40.5253551,19 25.3904394,34.1104514 25.3904394,52.7501379 C25.3904394,64.2683128 33.410663,67.1990407 34.9794378,80.3748774 C36.2724172,91.2343621 22.540291,109.321311 25.3904394,110.323902 C28.906073,111.56059 47.5134371,111.56059 60.7664031,106.309106 Z" id="椭圆形备份" fill="url(#radialGradient-2)"></path>
            <path d="M93.0633899,110.754795 C109.982842,110.754795 127,95.5873674 127,76.8773974 C127,58.1674275 111.806062,43 93.0633899,43 C74.3207177,43 58.9307988,56.9495166 58.9307988,76.8773974 C58.9307988,83.4048241 51.9991943,94.4219743 43.6260325,100.958772 C34.2612843,108.269687 23.4272199,110.754795 25.1901697,110.754795 C65.5866092,111.306506 76.7959645,110.754795 93.0633899,110.754795 Z" id="椭圆形" fill="url(#radialGradient-3)"></path>
            <g id="编组" transform="translate(102.000000, 0.000000)" fill-rule="nonzero">
                <path d="M30.5799497,42.8363837 C31.5889868,34.7151706 29.6724536,26.2481354 24.5438542,19.1415418 C19.4224775,12.0421853 12.0108342,7.56139859 4,5.96113788 L5.69518237,0 C14.9725175,2.00057422 23.5348171,7.28865751 29.501944,15.5591545 C35.4546258,23.8113458 37.7810051,33.5802158 36.7721096,43 L30.5799497,42.8363837 Z" id="路径" fill="url(#radialGradient-4)"></path>
                <path d="M18.95356,22.998595 C23.1774383,28.995629 24.6812994,36.1637741 23.7213586,43 L17.8053764,42.7156198 C18.7012287,37.2180303 17.5494384,31.3996235 14.1397064,26.5587557 C10.6625566,21.6232369 5.50023898,18.6500551 0,17.8622452 L1.55740689,12 C8.33026107,13.1416483 14.6479757,16.8881221 18.95356,22.998595 L18.95356,22.998595 Z" id="路径" fill="url(#radialGradient-5)"></path>
            </g>
            <path d="M50.1237439,61.1730773 L49.8762561,61.1730773 L49.8762561,60.8269227 C49.9644969,60.9336296 50.0261965,61.0657276 50.1237439,61.1727559 L50.1237439,61.1730773 Z" id="路径" fill="#000000" fill-rule="nonzero"></path>
            <path d="M87.1239162,61.1730773 L86.8760838,61.1730773 C86.9643245,61.068258 87.0353308,60.9392739 87.1239162,60.8269227 L87.1239162,61.1727635 L87.1239162,61.1730773 Z" id="路径" fill="#000000" fill-rule="nonzero"></path>
            <g id="上升备份" transform="translate(68.000000, 61.000000)" fill="#FFFFFF" fill-rule="nonzero">
                <path d="M0,41.9195665 L1,42.8900922 C20.5580228,46.234096 31.2500352,32.3960389 31.0080349,17.7440218 L38.5100436,17.7000218 C39.0380443,17.7000218 39.5220448,17.4140214 39.7200451,16.9300209 C39.9180453,16.4680203 39.7860451,15.9180197 39.4120447,15.5440193 L26.80603,0.408001638 C26.2780294,-0.0759989248 25.4420284,-0.0759989248 24.9580279,0.430001664 L12.9020138,15.6980194 C12.6600136,15.9400197 12.5280134,16.2700201 12.5280134,16.6000205 C12.5280134,16.7540207 12.5720135,16.9300209 12.6380135,17.084021 C12.8580138,17.5680216 13.3420144,17.8540219 13.870015,17.8320219 L21.2400236,17.7880219 C21.4600238,32.1980386 11.3300132,41.1495656 0,41.9195665 Z" id="路径"></path>
            </g>
        </g>
    </g>
</svg>