<?xml version="1.0" encoding="UTF-8"?>
<svg width="92px" height="92px" viewBox="0 0 92 92" version="1.1" xmlns="http://www.w3.org/2000/svg" xmlns:xlink="http://www.w3.org/1999/xlink">
    <title>画板</title>
    <g id="画板" stroke="none" stroke-width="1" fill="none" fill-rule="evenodd">
        <g id="编组备份-4" transform="translate(9.000000, 14.000000)" fill="#FFFFFF" fill-rule="nonzero">
            <ellipse id="椭圆形备份-2" cx="13.3796981" cy="46.6216216" rx="13.3796981" ry="13.3783784"></ellipse>
            <path d="M32.9780717,57.4368208 C37.7469192,55.5126669 41.3084372,52.5547321 43.919304,49.0840253 C46.2691423,45.9603118 40.7640365,44.5746014 41.760876,41 C42.7806399,37.3431935 50.2752294,31.4958435 50.2752294,28.1713445 C50.2752294,17.9863219 42.1535474,9.72972973 32.134945,9.72972973 C22.1163426,9.72972973 13.9946607,17.9863219 13.9946607,28.1713445 C13.9946607,34.4650594 18.2984643,36.066456 19.1402986,43.2659437 C19.8341357,49.1997397 12.4652172,59.0827377 13.9946607,59.6305695 C15.8812162,60.3063156 25.8662796,60.3063156 32.9780717,57.4368208 Z" id="椭圆形备份"></path>
            <path d="M51.1208923,23.5135135 C61.4020684,23.5135135 69.7366085,31.6518391 69.7366085,41.6909724 C69.7366085,51.7301058 60.4019524,59.8684314 51.1208923,59.8684314 C51.0298372,59.8684314 50.9390711,59.8684622 50.8485739,59.8685229 L50.3086582,59.8692382 C50.2191569,59.8694146 50.1298846,59.869619 50.0408214,59.8698505 L49.5087912,59.8715565 L49.5087912,59.8715565 L48.9808206,59.8738664 C48.7176904,59.8751648 48.4557234,59.8766726 48.1943804,59.8783644 L47.1510603,59.8860527 C46.5429085,59.8910395 45.9342431,59.8968432 45.3182181,59.90314 L44.7882347,59.9086505 C41.2408678,59.9460916 37.3893231,59.9966171 31.956244,59.9998378 L30.7065739,59.9997388 C26.3065158,59.9964724 20.8990077,59.9620733 13.8894599,59.8684314 C12.9224048,59.8684314 18.8653634,58.535007 24.0023377,54.6122187 C28.5953835,51.1047955 32.397672,45.1933675 32.397672,41.6909724 C32.397672,30.9983495 40.8397161,23.5135135 51.1208923,23.5135135 Z M50.4558294,33.4809592 L44.1013574,41.9215095 C43.9738041,42.0552934 43.9042296,42.2377261 43.9042296,42.4201588 C43.9042296,42.505294 43.9274211,42.6025914 43.9622084,42.6877266 C44.0781659,42.9552945 44.3332725,43.1134028 44.6115705,43.1012406 L48.4961474,43.0769163 C48.6121049,51.0431417 43.2727888,55.9917746 37.3009766,56.4174508 L37.8280556,56.9539822 C48.1366791,58.8026329 53.7722145,51.1526014 53.6446612,43.0525919 L57.5988126,43.0282676 C57.8771107,43.0282676 58.1322172,42.8701593 58.236579,42.6025914 C58.3409407,42.3471857 58.2713662,42.0431313 58.0742384,41.8363743 L51.4298726,33.468797 C51.1515745,33.2012291 50.710936,33.2012291 50.4558294,33.4809592 Z" id="形状结合"></path>
            <g id="编组" transform="translate(55.951465, 0.000000)">
                <path d="M16.0845404,23.4240439 C16.615277,18.9831543 15.6072127,14.3531601 12.9096554,10.4670907 C10.2158972,6.58497876 6.31749724,4.13476856 2.10393288,3.25970456 L2.99557036,0 C7.87529295,1.09396579 12.3789189,3.98562667 15.5175275,8.5081486 C18.6485382,13.0206605 19.8721747,18.3625316 19.3415126,23.5135135 L16.0845404,23.4240439 Z" id="路径"></path>
                <path d="M9.9692545,12.5762273 C12.1909436,15.8555608 12.9819493,19.7752882 12.4770366,23.5135135 L9.3653292,23.3580071 C9.83653247,20.3517828 9.2307101,17.1701272 7.43724829,14.5230154 C5.60832584,11.8241459 2.8930334,10.1983331 0,9.76753823 L0.819169889,6.56191075 C4.38157753,7.1861936 7.70458941,9.23486249 9.9692545,12.5762273 L9.9692545,12.5762273 Z" id="路径"></path>
            </g>
        </g>
    </g>
</svg>