<?xml version="1.0" encoding="UTF-8"?>
<svg width="139px" height="110px" viewBox="0 0 139 110" version="1.1" xmlns="http://www.w3.org/2000/svg" xmlns:xlink="http://www.w3.org/1999/xlink">
    <title>跟单宝logo纯白</title>
    <g id="跟单宝logo纯白" stroke="none" stroke-width="1" fill="none" fill-rule="evenodd">
        <g id="编组-9备份" fill-rule="nonzero">
            <g id="编组备份-4" transform="translate(0.000000, 0.000000)">
                <ellipse id="椭圆形备份-2" fill="#FFFFFF" cx="24.7259615" cy="84.9791399" rx="24.7259615" ry="24.7577022"></ellipse>
                <path d="M60.543623,105.028636 C69.2771568,101.494232 75.7996213,96.0609141 80.5810898,89.6857054 C84.884518,83.9478756 74.8026211,81.402517 76.6282051,74.8364684 C78.4957722,68.1194202 92.2211538,57.3786465 92.2211538,51.2720015 C92.2211538,32.5635228 77.3473326,17.3973042 58.9995442,17.3973042 C40.6517559,17.3973042 25.7779346,32.5635228 25.7779346,51.2720015 C25.7779346,62.8326858 33.6598003,65.7742299 35.201512,78.9986938 C36.472186,89.8982569 22.9769545,108.051958 25.7779346,109.058249 C29.2329196,110.299501 47.5192856,110.299501 60.543623,105.028636 Z" id="椭圆形备份" fill="#FFFFFF"></path>
                <path d="M94.0671627,42.8241335 C112.977685,42.8241335 128.307692,57.7491066 128.307692,76.1599938 C128.307692,94.5708811 111.138137,109.495854 94.0671627,109.495854 C90.784541,109.495854 87.7060541,109.51757 84.5552871,109.547972 L83.6076122,109.55734 C76.7964399,109.626159 69.5233807,109.729108 59.0413216,109.736695 L56.0305789,109.736232 C48.0261958,109.728103 38.2211486,109.664151 25.5861035,109.495854 C24.7547369,109.495854 26.6998908,108.961649 29.9724774,107.658065 L30.4375866,107.471152 C34.1461422,105.96752 39.3600593,103.531643 44.1870688,99.8564227 C52.6352165,93.424117 59.628897,82.5830782 59.628897,76.1599938 C59.628897,56.5506642 75.1566404,42.8241335 94.0671627,42.8241335 Z M92.8438897,61.1035518 L81.1558898,76.5827785 C80.9212767,76.8281265 80.7933059,77.162692 80.7933059,77.4972574 C80.7933059,77.6533879 80.8359628,77.8318228 80.8999482,77.9879533 C81.1132329,78.4786493 81.5824592,78.7686059 82.0943424,78.7463016 L89.2393788,78.7016929 C89.4526634,93.3110495 79.631875,102.386407 68.6477146,103.167059 L69.6171892,104.151011 C88.5781963,107.541274 98.9438312,93.5117888 98.709218,78.6570841 L105.982225,78.6124755 C106.494108,78.6124755 106.963335,78.3225187 107.155291,77.8318228 C107.347247,77.3634312 107.219276,76.8058222 106.856692,76.4266481 L94.6354808,61.0812475 C94.1235976,60.5905515 93.3131159,60.5905515 92.8438897,61.1035518 Z" id="形状结合" fill="#FFFFFF"></path>
                <g id="编组" transform="translate(102.913462, 0.000000)" fill="#FFFFFF">
                    <path d="M29.0217693,43.1025711 C29.9793916,34.9308924 28.160514,26.4112426 23.2932389,19.2604883 C18.4328184,12.117016 11.3988304,7.6083855 3.79618273,5.99818069 L5.40498824,0 C14.2096031,2.01300589 22.3356166,7.33394959 27.9986926,15.6558399 C33.6480596,23.9593107 35.8558998,33.7888849 34.8984119,43.2672041 L29.0217693,43.1025711 Z" id="路径"></path>
                    <path d="M17.9877943,23.1415094 C21.9964478,29.1758093 23.4236807,36.3884976 22.512653,43.2672041 L16.8981156,42.9810568 C17.7483204,37.449305 16.6552188,31.5947423 13.4192273,26.7237931 C10.1192533,21.7576048 5.21997806,18.7659475 0,17.9732421 L1.47805029,12.0745686 C7.90579831,13.2233112 13.9015981,16.9930657 17.9877943,23.1415094 L17.9877943,23.1415094 Z" id="路径"></path>
                </g>
                <path d="M50.2855808,59.7839321 L49.9548038,59.7839321 L49.9548038,59.3206892 C50.072741,59.4634902 50.1552049,59.6402709 50.2855808,59.783502 L50.2855808,59.7839321 Z" id="路径" fill="#000000"></path>
                <path d="M86.3723495,59.7839321 L86.041112,59.7839321 C86.1590491,59.6436572 86.2539517,59.4710437 86.3723495,59.3206892 L86.3723495,59.7835121 L86.3723495,59.7839321 Z" id="路径" fill="#000000"></path>
            </g>
        </g>
    </g>
</svg>